<svg width="16" height="16" viewBox="0 0 16 16" fill="none" xmlns="http://www.w3.org/2000/svg">
<g id="Frame">
<path id="Vector" d="M9.83325 10C10.4776 10 10.9999 10.5223 10.9999 11.1667L10.9992 11.8081C11.077 13.2675 9.99185 14.006 8.04445 14.006C6.10516 14.006 4.99992 13.2795 4.99992 11.8333V11.1667C4.99992 10.5223 5.52225 10 6.16658 10H9.83325ZM2.49992 6.66667L5.41725 6.66673C5.36242 6.8798 5.33325 7.10313 5.33325 7.33333C5.33325 8.077 5.63769 8.7496 6.12872 9.23327L6.23676 9.334L6.16658 9.33333C5.96568 9.33333 5.77234 9.36567 5.59144 9.42533C5.01495 9.61567 4.56502 10.0843 4.40073 10.6721L4.37778 10.6727C2.43849 10.6727 1.33325 9.94613 1.33325 8.5V7.83333C1.33325 7.189 1.85559 6.66667 2.49992 6.66667ZM13.4999 6.66667C14.1443 6.66667 14.6666 7.189 14.6666 7.83333L14.6659 8.47473C14.7437 9.93413 13.6585 10.6727 11.7111 10.6727L11.5989 10.6715C11.4397 10.1023 11.0125 9.64487 10.4619 9.44393C10.305 9.38667 10.1381 9.35027 9.96458 9.33793L9.83325 9.33333L9.76305 9.334C10.3171 8.84533 10.6666 8.13013 10.6666 7.33333C10.6666 7.10313 10.6375 6.8798 10.5826 6.66673L13.4999 6.66667ZM7.99992 5.33333C9.10452 5.33333 9.99992 6.22877 9.99992 7.33333C9.99992 8.43793 9.10452 9.33333 7.99992 9.33333C6.89532 9.33333 5.99992 8.43793 5.99992 7.33333C5.99992 6.22877 6.89532 5.33333 7.99992 5.33333ZM4.33325 2C5.43782 2 6.33325 2.89543 6.33325 4C6.33325 5.10457 5.43782 6 4.33325 6C3.22869 6 2.33325 5.10457 2.33325 4C2.33325 2.89543 3.22869 2 4.33325 2ZM11.6666 2C12.7712 2 13.6666 2.89543 13.6666 4C13.6666 5.10457 12.7712 6 11.6666 6C10.562 6 9.66658 5.10457 9.66658 4C9.66658 2.89543 10.562 2 11.6666 2Z" fill="#006C67"/>
</g>
</svg>
