<svg width="16" height="16" viewBox="0 0 16 16" fill="none" xmlns="http://www.w3.org/2000/svg">
<g id="Layer_1" clip-path="url(#clip0_292_431)">
<g id="Group">
<path id="Vector" d="M14.1482 2.45095C14.055 2.35759 13.9325 2.31079 13.8101 2.31079H2.18998C2.06718 2.31079 1.9447 2.35759 1.85134 2.45095C1.75798 2.54431 1.71118 2.66687 1.71118 2.78919V10.787H14.2884V2.78919C14.2884 2.66679 14.2417 2.54431 14.1482 2.45095ZM7.9999 2.57847C8.0787 2.57847 8.14238 2.64223 8.14238 2.72087C8.14238 2.79951 8.0787 2.86327 7.9999 2.86327C7.9211 2.86327 7.85734 2.79951 7.85734 2.72087C7.85734 2.64223 7.9211 2.57847 7.9999 2.57847ZM13.4682 9.96647H2.5315V3.13095H13.4682V9.96647Z" fill="#006C67"/>
<path id="Vector_2" d="M1.71124 11.1172L0.0501192 12.7734C0.0027592 12.8208 -0.0142008 12.894 0.0129992 12.9596C0.0404392 13.0254 0.103799 13.0653 0.170999 13.0653H15.829C15.8963 13.0653 15.9596 13.0254 15.9872 12.9596C16.0144 12.894 15.9972 12.8208 15.9498 12.7734L14.2885 11.1172H1.71124ZM14.2023 12.0534C14.2362 12.0925 14.246 12.1494 14.223 12.1997C14.1999 12.2498 14.1504 12.2793 14.0985 12.2793H9.65132L9.67636 12.3933C9.6814 12.4166 9.67636 12.442 9.65996 12.4623C9.64388 12.4825 9.62004 12.4928 9.59588 12.4928H6.40356C6.37988 12.4928 6.3562 12.4825 6.33988 12.4623C6.32364 12.442 6.31828 12.4166 6.32324 12.3933L6.34844 12.2793H1.90132C1.84948 12.2793 1.79996 12.2498 1.777 12.1997C1.75388 12.1494 1.76364 12.0925 1.79756 12.0534L2.24948 11.5273H13.7503L14.2023 12.0534Z" fill="#006C67"/>
<path id="Vector_3" d="M15.829 13.168H9.38464C9.37728 13.1844 9.36792 13.1997 9.35632 13.2137C9.3212 13.255 9.26968 13.2789 9.21504 13.2789H6.78496C6.73056 13.2789 6.67896 13.2549 6.64376 13.2137C6.63208 13.1997 6.62256 13.1844 6.61552 13.168H0.170964C0.107364 13.168 0.0479241 13.1456 0.000244141 13.1074V13.279C0.000244141 13.3841 0.0404841 13.489 0.120484 13.5689C0.200404 13.6491 0.305284 13.6892 0.410484 13.6892H15.5891C15.6942 13.6892 15.7996 13.6491 15.8794 13.5689C15.9595 13.489 15.9994 13.384 15.9994 13.279V13.1074C15.9523 13.1455 15.8927 13.168 15.829 13.168ZM1.44576 13.5181C1.39672 13.5181 1.35664 13.4781 1.35664 13.4285C1.35664 13.3791 1.39672 13.339 1.44576 13.339C1.49528 13.339 1.5352 13.3791 1.5352 13.4285C1.5352 13.4781 1.49528 13.5181 1.44576 13.5181ZM1.87568 13.5181C1.82648 13.5181 1.78608 13.4781 1.78608 13.4285C1.78608 13.3791 1.8264 13.339 1.87568 13.339C1.92544 13.339 1.96528 13.3791 1.96528 13.4285C1.96528 13.4781 1.92544 13.5181 1.87568 13.5181ZM2.30592 13.5181C2.25632 13.5181 2.21624 13.4781 2.21624 13.4285C2.21624 13.3791 2.25632 13.339 2.30592 13.339C2.35512 13.339 2.39512 13.3791 2.39512 13.4285C2.39504 13.4781 2.35512 13.5181 2.30592 13.5181Z" fill="#006C67"/>
<g id="Group_2">
<g id="Group_3">
<path id="Vector_4" d="M7.95012 5.3479C7.95012 5.43246 7.92852 5.5123 7.89068 5.58166L7.76876 5.45382C7.78052 5.4207 7.7866 5.38486 7.7866 5.34782C7.7866 5.16742 7.64012 5.02078 7.45972 5.02078C7.27964 5.02078 7.13268 5.16742 7.13268 5.34782C7.13268 5.48462 7.2174 5.60206 7.33692 5.65078V5.82262C7.12564 5.76806 6.96924 5.5759 6.96924 5.34782C6.96924 5.07726 7.18932 4.85718 7.45972 4.85718C7.73004 4.85726 7.95012 5.07734 7.95012 5.3479Z" fill="#006C67"/>
<path id="Vector_5" d="M7.45966 4.44873C6.9639 4.44873 6.5603 4.85201 6.5603 5.34801C6.5603 5.80217 6.89894 6.17841 7.33694 6.23857V6.07313C6.98974 6.01457 6.72406 5.71177 6.72406 5.34801C6.72406 4.94217 7.0539 4.61209 7.45974 4.61209C7.86558 4.61209 8.19558 4.94217 8.19558 5.34801C8.19558 5.50281 8.14734 5.64641 8.0651 5.76513L8.1799 5.88569C8.29262 5.73553 8.35902 5.54921 8.35902 5.34793C8.35886 4.85201 7.95574 4.44873 7.45966 4.44873Z" fill="#006C67"/>
</g>
<path id="Vector_6" d="M7.46891 5.33066C7.46299 5.3329 7.45947 5.3385 7.45947 5.34458V8.17226C7.45947 8.17802 7.46275 8.18338 7.46843 8.18586C7.47219 8.18754 7.47643 8.18746 7.48011 8.18618C7.48163 8.18546 7.48291 8.18458 7.48427 8.18338L8.03075 7.69514C8.03219 7.69402 8.03371 7.69322 8.03539 7.6925C8.03803 7.69154 8.04115 7.69106 8.04435 7.69194C8.04923 7.69306 8.05315 7.69658 8.05459 7.70074L8.40755 8.58314C8.41771 8.60818 8.43715 8.62914 8.46339 8.64066C8.49027 8.65202 8.51883 8.65146 8.54355 8.64178L8.97403 8.4697C8.99891 8.45946 9.02003 8.4401 9.03155 8.41362C9.04291 8.38698 9.04203 8.35826 9.03251 8.33346L8.67915 7.45114C8.67755 7.44666 8.67803 7.44146 8.68091 7.43714C8.68259 7.43466 8.68515 7.43266 8.68763 7.43154C8.68931 7.43098 8.69099 7.43066 8.69283 7.43066L9.42491 7.4073C9.42659 7.4073 9.42827 7.4069 9.42995 7.40634C9.43347 7.40474 9.43651 7.40202 9.43835 7.39794C9.44051 7.39234 9.43931 7.38618 9.43539 7.38194L7.48547 5.33418C7.48139 5.3301 7.47467 5.32826 7.46891 5.33066Z" fill="#006C67"/>
</g>
</g>
</g>
<defs>
<clipPath id="clip0_292_431">
<rect width="16" height="16" fill="white"/>
</clipPath>
</defs>
</svg>
