<svg width="16" height="16" viewBox="0 0 16 16" fill="none" xmlns="http://www.w3.org/2000/svg">
<g id="Innovative_x5F_mind" clip-path="url(#clip0_292_387)">
<g id="Group">
<path id="Vector" d="M7.84771 1.859C8.02384 1.859 8.16662 1.71622 8.16662 1.5401C8.16662 1.36397 8.02384 1.22119 7.84771 1.22119C7.67159 1.22119 7.52881 1.36397 7.52881 1.5401C7.52881 1.71622 7.67159 1.859 7.84771 1.859Z" fill="#006C67"/>
<path id="Vector_2" d="M14.5168 4.89299C13.9719 4.89299 13.5205 5.33321 13.4481 5.80196H12.7675C12.6613 5.80196 12.5593 5.93093 12.5593 6.0378V7.08321H11.224C10.9304 6.23946 10.3197 5.51458 9.53106 5.09221C9.44621 5.04596 9.33668 5.00321 9.2474 4.96452C8.86759 4.79943 8.49684 4.69827 7.99684 4.67502V2.92696H8.26462C8.3715 2.92696 8.40309 2.88424 8.40309 2.7773V2.40683C8.40309 2.39627 8.43759 2.38499 8.45021 2.3759C8.73568 2.17405 8.92031 1.84502 8.92031 1.49558C8.92031 1.18899 8.79568 0.895803 8.56784 0.691209C8.33931 0.486553 8.03553 0.389584 7.7289 0.423334C7.22975 0.478146 6.82237 0.881021 6.77037 1.38093C6.73028 1.77046 6.89603 2.1523 7.21528 2.37727C7.22643 2.38502 7.21559 2.3963 7.21559 2.40687V2.77733C7.21559 2.88427 7.33793 2.92699 7.44481 2.92699H7.65309V4.67521C6.15309 4.7543 4.93168 5.73949 4.47087 7.08324H3.43434V6.03783C3.43434 5.93096 3.34274 5.80199 3.23587 5.80199H2.55806C2.48568 5.33324 2.03418 4.89302 1.48928 4.89302C0.894432 4.89302 0.418213 5.3874 0.418213 5.9829C0.418213 6.34502 0.528088 6.68821 0.903088 6.88796V7.27533C0.903088 7.38215 0.973244 7.42696 1.08012 7.42696H1.89928C2.00615 7.42696 2.09059 7.38215 2.09059 7.27533V6.88796C2.30934 6.73324 2.48215 6.45821 2.5419 6.23946H2.99684V7.27533C2.99684 7.38215 3.12899 7.42696 3.23587 7.42696H4.36228C4.32259 7.64571 4.29378 7.8134 4.28253 8.00287L4.27806 8.02359V8.02987C4.27806 8.0989 4.27806 8.43362 4.27806 8.43362L3.64468 10.1809C3.58206 10.3546 3.71374 10.5207 3.89843 10.5207H4.28246L4.27965 12.536C4.27965 12.9277 4.59721 13.2707 4.98893 13.2707H6.32115H7.3305C7.43731 13.2707 7.52387 13.3358 7.52387 13.4426C7.52387 13.5493 7.43731 13.6145 7.3305 13.6145H6.30928V15.0737C6.30928 15.3643 6.5495 15.5832 6.84006 15.5832H10.1036C10.3942 15.5832 10.5905 15.3643 10.5905 15.0737V11.3625C10.5905 10.8514 10.7463 10.3523 10.9852 9.90024C11.2347 9.42802 11.3913 8.89309 11.4049 8.32505C11.4056 8.29655 11.411 8.26743 11.411 8.23833C11.411 8.18255 11.4135 8.10593 11.411 8.05087C11.4015 7.8448 11.3756 7.64574 11.3326 7.42699H12.7674C12.8743 7.42699 12.903 7.38218 12.903 7.27537V6.23949H13.4642C13.524 6.45824 13.7155 6.73327 13.903 6.88799V7.27537C13.903 7.38218 14 7.42699 14.1068 7.42699H14.926C15.0329 7.42699 15.0905 7.38218 15.0905 7.27537V6.88799C15.3718 6.68821 15.5817 6.34505 15.5817 5.98293C15.5817 5.38737 15.1117 4.89299 14.5168 4.89299ZM7.4635 2.0608C7.25537 1.91462 7.13962 1.6748 7.16634 1.42096C7.19943 1.10108 7.45534 0.843021 7.77456 0.807178C7.97562 0.785334 8.16756 0.846553 8.31668 0.979365C8.46293 1.1109 8.54728 1.29858 8.54728 1.49555C8.54728 1.71912 8.43165 1.93074 8.24812 2.06012C8.1335 2.14165 8.05934 2.27105 8.05934 2.4068V2.58321H7.65309V2.40683C7.65306 2.27108 7.57734 2.14168 7.4635 2.0608ZM2.13968 6.23115C2.08206 6.39008 1.93965 6.52508 1.78353 6.60671C1.71956 6.6404 1.65309 6.70649 1.65309 6.77821V7.08321H1.24684V6.77821C1.24684 6.70649 1.22006 6.6404 1.15609 6.60671C0.926182 6.48633 0.790119 6.25155 0.790119 5.99349C0.790119 5.61171 1.10421 5.30093 1.48599 5.30093C1.81649 5.30093 2.09587 5.53365 2.16409 5.84446C2.17459 5.8923 2.18109 5.94224 2.18109 5.99352C2.18106 6.07649 2.16715 6.15665 2.13968 6.23115ZM10.2383 7.45543C10.1764 8.04402 9.67862 8.48946 9.07462 8.48946H6.49418C5.8895 8.48946 5.39237 8.04449 5.33049 7.45593C5.32568 7.41565 5.32359 7.38152 5.32353 7.3399C5.32359 7.25018 5.33403 7.14571 5.35299 7.08321H5.35281C5.35287 7.08321 5.35293 7.0819 5.35299 7.08158C5.47256 6.56121 5.93728 6.17399 6.49418 6.17399C6.60387 6.17399 6.71009 6.19024 6.81134 6.21908C6.95056 5.85421 7.21559 5.57643 7.65309 5.49274V5.49287C7.71559 5.47462 7.81753 5.45755 7.90328 5.45755C7.94971 5.45755 7.99675 5.45821 8.04175 5.45821H8.04143C8.46612 5.52071 8.82096 5.79162 8.982 6.17137C9.01293 6.16849 9.04384 6.1703 9.07478 6.1703C9.63093 6.1703 10.0963 6.55971 10.2152 7.08002C10.2348 7.16418 10.2453 7.25283 10.2454 7.34249C10.2453 7.38421 10.2431 7.41508 10.2383 7.45543ZM14.8438 6.60671C14.7798 6.6404 14.7468 6.70649 14.7468 6.77821V7.08321H14.2468V6.77821C14.2468 6.70649 14.2334 6.6404 14.1694 6.60671C14.1533 6.59824 14.1505 6.58912 14.135 6.57852C14.1258 6.57359 14.124 6.56796 14.1156 6.56093C14.0798 6.53705 14.0501 6.50958 14.0206 6.47865C14.0121 6.4709 14.006 6.46246 13.9983 6.45405C13.9948 6.45052 13.9921 6.44637 13.9893 6.44208C13.9781 6.42946 13.9679 6.4168 13.9581 6.40346C13.9567 6.40133 13.9555 6.39846 13.9533 6.39643C13.9414 6.37952 13.9303 6.36262 13.9204 6.34502C13.9092 6.32743 13.8994 6.30852 13.891 6.28949C13.8818 6.27058 13.8734 6.25087 13.8664 6.23115C13.8601 6.21496 13.8552 6.19812 13.8502 6.18121C13.8453 6.16437 13.8411 6.14677 13.8376 6.12921C13.8362 6.12077 13.8341 6.11237 13.8334 6.10387C13.8305 6.08768 13.8284 6.07152 13.827 6.05533C13.825 6.03496 13.8242 6.01455 13.8242 5.99346C13.8242 5.96818 13.8256 5.94287 13.8284 5.91752C13.8298 5.9049 13.8312 5.89293 13.8334 5.88096C13.8354 5.86758 13.8382 5.85427 13.8411 5.84093C13.8446 5.82474 13.8488 5.80924 13.8537 5.7938C13.8552 5.78958 13.8566 5.78465 13.8587 5.77971C13.8622 5.76562 13.8671 5.7523 13.8727 5.73893C13.8791 5.72349 13.8853 5.70871 13.8931 5.69327C13.8966 5.68552 13.9008 5.67702 13.9051 5.66933C13.9114 5.65743 13.9177 5.64615 13.9247 5.63483C13.9304 5.62496 13.9359 5.61587 13.943 5.60671C13.9711 5.56452 14.0042 5.5259 14.0407 5.49143C14.052 5.48021 14.0639 5.46965 14.0766 5.45908C14.078 5.45768 14.0794 5.45627 14.0815 5.45562C14.0941 5.44505 14.1068 5.43524 14.1202 5.4268C14.1504 5.40496 14.1827 5.38596 14.2165 5.3698C14.2249 5.36558 14.2341 5.36133 14.2432 5.35783C14.2558 5.35155 14.2685 5.34662 14.2812 5.3424C14.2995 5.33537 14.3185 5.32977 14.3374 5.3248C14.3557 5.31987 14.3747 5.31565 14.3937 5.31218C14.3951 5.31146 14.3958 5.31146 14.3972 5.31146C14.4162 5.30793 14.4358 5.30512 14.4556 5.30377C14.4759 5.30165 14.4963 5.3009 14.5167 5.3009C14.8986 5.3009 15.2128 5.61168 15.2128 5.99346C15.2129 6.25155 15.0737 6.48633 14.8438 6.60671Z" fill="#006C67"/>
<path id="Vector_3" d="M14.5096 6.35656C14.6857 6.35656 14.8285 6.21378 14.8285 6.03766C14.8285 5.86153 14.6857 5.71875 14.5096 5.71875C14.3335 5.71875 14.1907 5.86153 14.1907 6.03766C14.1907 6.21378 14.3335 6.35656 14.5096 6.35656Z" fill="#006C67"/>
<path id="Vector_4" d="M1.48248 6.35656C1.65861 6.35656 1.80139 6.21378 1.80139 6.03766C1.80139 5.86153 1.65861 5.71875 1.48248 5.71875C1.30635 5.71875 1.16357 5.86153 1.16357 6.03766C1.16357 6.21378 1.30635 6.35656 1.48248 6.35656Z" fill="#006C67"/>
<path id="Vector_5" d="M1.8882 7.70825H1.06911C0.962295 7.70825 0.875732 7.82025 0.875732 7.927C0.875732 8.03375 0.962295 8.14575 1.06911 8.14575H1.8882C1.99501 8.14575 2.08158 8.03375 2.08158 7.927C2.08158 7.82025 1.99501 7.70825 1.8882 7.70825Z" fill="#006C67"/>
<path id="Vector_6" d="M14.9193 7.70825H14.1001C13.9934 7.70825 13.9067 7.82025 13.9067 7.927C13.9067 8.03375 13.9933 8.14575 14.1001 8.14575H14.9193C15.026 8.14575 15.1126 8.03375 15.1126 7.927C15.1126 7.82025 15.026 7.70825 14.9193 7.70825Z" fill="#006C67"/>
<path id="Vector_7" d="M8.4151 6.8645H7.91798L8.21979 6.07656C8.2262 6.0596 8.22395 6.01878 8.2137 6.00381C8.20339 5.98897 8.18648 5.95825 8.16835 5.95825H7.68117C7.65729 5.95825 7.63629 5.99569 7.62885 6.01835L7.21807 7.27928C7.21257 7.29588 7.21545 7.32097 7.22582 7.33522C7.23614 7.3495 7.25279 7.36453 7.27039 7.36453H7.75526L7.50732 8.06494C7.49645 8.09553 7.50898 8.12681 7.53773 8.14197C7.54751 8.14703 7.55782 8.14931 7.56795 8.14931C7.58754 8.14931 7.60639 8.13975 7.61898 8.12231L8.45979 6.95347C8.47189 6.93656 8.47351 6.91381 8.46407 6.89535C8.45464 6.87688 8.43585 6.8645 8.4151 6.8645Z" fill="#006C67"/>
</g>
</g>
<defs>
<clipPath id="clip0_292_387">
<rect width="16" height="16" fill="white"/>
</clipPath>
</defs>
</svg>
