<svg width="16" height="16" viewBox="0 0 16 16" fill="none" xmlns="http://www.w3.org/2000/svg">
<g id="Layer_1_1_" clip-path="url(#clip0_292_446)">
<path id="Vector" d="M12.5 9.5C10.8433 9.5 9.5 10.8433 9.5 12.5C9.5 14.1567 10.8433 15.5 12.5 15.5C14.1567 15.5 15.5 14.1567 15.5 12.5C15.5 10.8433 14.1567 9.5 12.5 9.5ZM10.75 13C10.4737 13 10.25 12.7762 10.25 12.5C10.25 12.2238 10.4737 12 10.75 12C11.0263 12 11.25 12.2238 11.25 12.5C11.25 12.7762 11.0263 13 10.75 13ZM12.5 13C12.2238 13 12 12.7762 12 12.5C12 12.2238 12.2238 12 12.5 12C12.7762 12 13 12.2238 13 12.5C13 12.7762 12.7762 13 12.5 13ZM14.25 13C13.9738 13 13.75 12.7762 13.75 12.5C13.75 12.2238 13.9738 12 14.25 12C14.5262 12 14.75 12.2238 14.75 12.5C14.75 12.7762 14.5262 13 14.25 13Z" fill="#006C67"/>
<path id="Vector_2" d="M8 6.5C9.65675 6.5 11 5.15675 11 3.5C11 1.84325 9.65675 0.5 8 0.5C6.34325 0.5 5 1.84325 5 3.5C5 5.15675 6.34325 6.5 8 6.5ZM8.875 3C9.15125 3 9.375 3.22375 9.375 3.5C9.375 3.77625 9.15125 4 8.875 4C8.59875 4 8.375 3.77625 8.375 3.5C8.375 3.22375 8.59875 3 8.875 3ZM7.125 3C7.40125 3 7.625 3.22375 7.625 3.5C7.625 3.77625 7.40125 4 7.125 4C6.84875 4 6.625 3.77625 6.625 3.5C6.625 3.22375 6.84875 3 7.125 3Z" fill="#006C67"/>
<path id="Vector_3" d="M3.5 9.5C1.84325 9.5 0.5 10.8433 0.5 12.5C0.5 14.1567 1.84325 15.5 3.5 15.5C5.15675 15.5 6.5 14.1567 6.5 12.5C6.5 10.8433 5.15675 9.5 3.5 9.5ZM3.5 13C3.22375 13 3 12.7762 3 12.5C3 12.2238 3.22375 12 3.5 12C3.77625 12 4 12.2238 4 12.5C4 12.7762 3.77625 13 3.5 13Z" fill="#006C67"/>
<path id="Vector_4" d="M4.39975 3.95005L4.0995 3.55005C2.4475 4.79105 1.5 6.6863 1.5 8.75005C1.5 8.83705 1.50175 8.9233 1.50525 9.00955L2.00475 8.99055C2.00175 8.9108 2 8.83055 2 8.75005C2 6.84505 2.87475 5.09555 4.39975 3.95005Z" fill="#006C67"/>
<path id="Vector_5" d="M6.55969 14.5762L6.43994 15.0614C6.94744 15.1864 7.47219 15.2499 7.99994 15.2499C8.52769 15.2499 9.05244 15.1864 9.55969 15.0614L9.43994 14.5762C8.50369 14.8067 7.49619 14.8067 6.55969 14.5762Z" fill="#006C67"/>
<path id="Vector_6" d="M14.4948 9.00955C14.4983 8.9233 14.5001 8.83705 14.5001 8.75005C14.5001 6.6863 13.5526 4.79105 11.9008 3.55005L11.6006 3.95005C13.1253 5.09555 14.0001 6.84505 14.0001 8.75005C14.0001 8.83055 13.9983 8.9108 13.9953 8.99055L14.4948 9.00955Z" fill="#006C67"/>
</g>
<defs>
<clipPath id="clip0_292_446">
<rect width="16" height="16" fill="white"/>
</clipPath>
</defs>
</svg>
