<svg width="20" height="21" viewBox="0 0 20 21" fill="none" xmlns="http://www.w3.org/2000/svg">
<g id="Iconsax" clip-path="url(#clip0_98_10059)">
<path id="Vector" d="M18.125 14.0416H17.4167V13.4166H18.125C18.625 13.4166 19.0417 12.9999 19.0417 12.4999V8.12494C19.0417 7.33328 18.375 6.66661 17.5834 6.66661H13C12.2084 6.66661 11.5417 7.33328 11.5417 8.12494V12.4999C11.5417 12.9999 11.9584 13.4166 12.4584 13.4166H13.1667V14.0416H12.4584C11.5834 14.0416 10.9167 13.3333 10.9167 12.4999V8.12494C10.9167 6.95828 11.8334 6.04161 13 6.04161H17.625C18.7917 6.04161 19.7084 6.95828 19.7084 8.12494V12.4999C19.7084 13.3749 19 14.0416 18.125 14.0416ZM15.2917 5.37494C14.0417 5.37494 13 4.33328 13 3.08328C13 1.83328 14.0417 0.791611 15.2917 0.791611C16.5417 0.791611 17.5834 1.83328 17.5834 3.08328C17.5834 4.33328 16.5834 5.37494 15.2917 5.37494ZM15.2917 1.45828C14.375 1.45828 13.625 2.20828 13.625 3.12494C13.625 4.04161 14.375 4.79161 15.2917 4.79161C16.2084 4.79161 16.9584 4.04161 16.9584 3.12494C16.9584 2.20828 16.2084 1.45828 15.2917 1.45828Z" fill="white"/>
<path id="Vector_2" d="M16.375 20.2083C15.9584 20.2083 15.5834 19.9999 15.3334 19.7083C15.0834 19.9999 14.7084 20.2083 14.2917 20.2083C13.5417 20.2083 12.9167 19.5833 12.9167 18.8333V8.66661H13.5417V18.8333C13.5417 19.2499 13.875 19.5833 14.2917 19.5833C14.7084 19.5833 15 19.2083 15 18.8333V13.7499H15.625V18.8333C15.625 19.2499 15.9584 19.5833 16.375 19.5833C16.7917 19.5833 17.125 19.2499 17.125 18.8333V8.66661H17.75V18.8333C17.75 19.5833 17.125 20.2083 16.375 20.2083Z" fill="white"/>
<path id="Vector_3" d="M11.875 15.8749H0.333313V2.79161H12.0833V3.41661H0.958313V15.2499H11.875V15.8749Z" fill="white"/>
<path id="Vector_4" d="M9.83335 8.62498H2.66669V9.24998H9.83335V8.62498Z" fill="white"/>
<path id="Vector_5" d="M9.83335 10.75H2.66669V11.375H9.83335V10.75Z" fill="white"/>
<path id="Vector_6" d="M9.83335 12.9166H2.66669V13.5416H9.83335V12.9166Z" fill="white"/>
</g>
<defs>
<clipPath id="clip0_98_10059">
<rect width="20" height="20" fill="white" transform="translate(0 0.5)"/>
</clipPath>
</defs>
</svg>
