<svg width="101" height="63" viewBox="0 0 101 63" fill="none" xmlns="http://www.w3.org/2000/svg">
<path d="M85.3118 18.7374L71.9852 0.968582C71.551 0.367382 70.8496 0.0333862 70.1148 0.0333862H64.704C62.8002 0.0333862 61.698 2.17098 62.8336 3.67398L74.2564 18.704C74.8576 19.5056 74.8576 20.6412 74.2564 21.4428L67.543 30.0934C66.6078 31.2958 64.7374 31.2958 63.8022 30.06L41.9586 0.968582C41.5244 0.367382 40.823 0.0333862 40.0882 0.0333862H31.2038C30.469 0.0333862 29.7676 0.367382 29.3334 0.968582L16.0068 18.5036C15.4056 19.3052 15.4056 20.374 16.0068 21.209L29.3334 39.1782C29.7676 39.7794 30.469 40.1134 31.2372 40.1134H39.8544C40.5892 40.1134 41.2906 39.7794 41.7248 39.1782L46.6012 32.7654C47.7368 31.2624 46.6346 29.1248 44.7308 29.1248H39.2866C38.5518 29.1248 37.8504 29.4588 37.4162 30.06C36.481 31.2958 34.6106 31.2958 33.6754 30.06L27.129 21.4094C26.5278 20.6078 26.5278 19.5056 27.129 18.704L33.6754 10.0534C34.6106 8.81759 36.481 8.81759 37.4162 10.0534L59.4268 39.1448C59.861 39.7126 60.5624 40.08 61.2972 40.08H70.1816C70.9164 40.08 71.6178 39.746 72.052 39.1448L85.3786 21.376C85.913 20.6412 85.913 19.539 85.3118 18.7374Z" fill="url(#paint0_linear_98_9906)"/>
<path d="M15.8734 40.1134H21.0504C23.0544 40.1134 24.19 37.8756 23.021 36.3058L11.7652 21.4762C11.1306 20.6412 11.1306 19.4722 11.7652 18.6372L23.021 3.8076C24.2234 2.2378 23.0544 0 21.0504 0H15.8734C15.1052 0 14.3703 0.367398 13.9028 0.968598L0.47595 18.6372C-0.15865 19.4722 -0.15865 20.6412 0.47595 21.4762L13.9028 39.1448C14.3703 39.7794 15.1052 40.1134 15.8734 40.1134Z" fill="url(#paint1_linear_98_9906)"/>
<path d="M85.0446 40.1134H79.8676C77.8636 40.1134 76.728 37.8756 77.897 36.3058L89.1528 21.4762C89.7874 20.6412 89.7874 19.4722 89.1528 18.6372L77.9304 3.84098C76.728 2.27118 77.897 0.0333862 79.901 0.0333862H85.078C85.8462 0.0333862 86.581 0.400784 87.0486 1.00198L100.475 18.6706C101.11 19.5056 101.11 20.6746 100.475 21.5096L87.0486 39.1782C86.5476 39.7794 85.8128 40.1134 85.0446 40.1134Z" fill="url(#paint2_linear_98_9906)"/>
<path d="M24.1893 60.8548C24.1893 60.9216 24.1559 60.9884 24.0557 61.0886C23.3209 61.8568 22.3523 62.2242 21.1499 62.2242C19.9141 62.2242 18.9121 61.8568 18.1439 61.122C17.4091 60.4206 17.0417 59.5188 17.0417 58.4166C17.0417 57.3478 17.4091 56.4794 18.1439 55.7446C18.9121 54.9764 19.8807 54.5756 21.0497 54.5756C22.3189 54.5756 23.3209 54.9096 24.0557 55.611C24.1225 55.6778 24.1893 55.7446 24.1893 55.8114C24.1893 55.8782 24.0557 56.112 23.7885 56.5462C23.5213 56.9804 23.3543 57.2142 23.2541 57.2476C23.2207 57.281 23.1873 57.281 23.1205 57.281C23.0871 57.281 22.9869 57.2142 22.8199 57.0806C22.6195 56.9136 22.3857 56.78 22.1853 56.6798C21.8847 56.5462 21.5507 56.4794 21.2167 56.4794C20.6489 56.4794 20.1813 56.6798 19.8139 57.0472C19.4799 57.4146 19.3463 57.8488 19.3463 58.3498C19.3463 58.8842 19.5133 59.3184 19.8139 59.6858C20.1479 60.0866 20.6155 60.2536 21.2167 60.2536C21.5507 60.2536 21.8847 60.1868 22.1853 60.0532C22.3857 59.953 22.5861 59.8528 22.7865 59.6858C22.9535 59.5522 23.0537 59.4854 23.0871 59.4854C23.1205 59.4854 23.1539 59.5188 23.2207 59.5522C23.2875 59.619 23.4545 59.8194 23.7217 60.1868C24.0557 60.621 24.1893 60.8214 24.1893 60.8548Z" fill="#008A87"/>
<path d="M33.0402 58.3832C33.0402 59.452 32.6394 60.3538 31.8712 61.0886C31.0696 61.8234 30.0676 62.1908 28.8318 62.1908C27.6294 62.1908 26.594 61.8234 25.7924 61.0552C24.9908 60.3204 24.6234 59.4186 24.6234 58.3498C24.6234 57.281 25.0242 56.3792 25.7924 55.6444C26.594 54.9096 27.596 54.5088 28.8318 54.5088C30.0342 54.5088 31.0696 54.8762 31.8712 55.6444C32.6394 56.4126 33.0402 57.3144 33.0402 58.3832ZM30.8024 58.3832C30.8024 57.8488 30.6354 57.4146 30.268 57.0472C29.9006 56.6798 29.3996 56.4794 28.8318 56.4794C28.264 56.4794 27.7964 56.6798 27.429 57.0806C27.0616 57.448 26.8612 57.9156 26.8612 58.3832C26.8612 58.9176 27.0282 59.3518 27.3956 59.7192C27.763 60.0866 28.264 60.287 28.8318 60.287C29.3996 60.287 29.8672 60.0866 30.268 59.6858C30.602 59.3184 30.8024 58.8842 30.8024 58.3832Z" fill="#008A87"/>
<path d="M41.6577 58.3498C41.6577 59.3518 41.2903 60.2536 40.5555 60.9884C39.8875 61.6564 38.9857 62.0238 37.7833 62.0572C37.5495 62.0572 36.9149 62.0572 35.8795 62.0572C35.6791 62.0572 35.3785 62.0572 35.0111 62.0572C34.6437 62.0572 34.3431 62.0572 34.1427 62.0572C34.0425 62.0572 33.9757 62.0238 33.9757 61.9236C33.9757 61.5562 33.9757 60.955 34.0425 60.2202C34.1093 59.4854 34.1093 58.8842 34.1093 58.5168C34.1093 58.116 34.0759 57.5148 34.0425 56.7132C34.0091 55.9116 33.9757 55.3104 33.9757 54.943C33.9757 54.8762 34.0425 54.8428 34.1427 54.8094C34.4099 54.776 34.8775 54.776 35.5121 54.776C36.7145 54.776 37.5161 54.776 37.8835 54.8094C38.8187 54.8762 39.5535 55.11 40.0879 55.444C40.5889 55.7446 40.9897 56.1788 41.2569 56.7466C41.5241 57.2476 41.6577 57.782 41.6577 58.3498ZM39.3865 58.3498C39.3865 57.7486 39.1861 57.281 38.7853 56.9136C38.3845 56.5128 37.8501 56.3458 37.1821 56.3458C36.5809 56.3458 36.2803 56.4126 36.2803 56.5462C36.2803 56.7466 36.2803 57.0472 36.2803 57.4814C36.2803 57.8822 36.2803 58.1828 36.2803 58.4166C36.2803 58.617 36.2803 58.9176 36.2803 59.3184C36.2803 59.7192 36.2803 60.0198 36.2803 60.2202C36.2803 60.3538 36.5809 60.454 37.2155 60.454C37.8835 60.454 38.4513 60.2536 38.8187 59.8528C39.1861 59.452 39.3865 58.9844 39.3865 58.3498Z" fill="#008A87"/>
<path d="M48.6381 60.4206C48.6381 60.5542 48.6047 60.8548 48.5379 61.2556C48.4711 61.6898 48.4043 61.957 48.3375 62.0238C48.3041 62.0906 48.2373 62.124 48.1371 62.124C48.1037 62.124 48.0369 62.124 47.9701 62.124C47.6695 62.0906 46.8345 62.0572 45.4651 62.0572C45.1645 62.0572 44.6969 62.0572 44.0957 62.0572C43.4945 62.0572 43.0603 62.0572 42.7597 62.0572C42.6261 62.0572 42.5593 61.9904 42.5593 61.8902C42.5593 61.4894 42.5927 60.9216 42.6261 60.1534C42.6595 59.3852 42.6929 58.784 42.6929 58.4166C42.6929 58.0158 42.6595 57.281 42.6261 56.2122C42.6261 55.945 42.5927 55.5108 42.5593 54.9764V54.9096C42.5593 54.8428 42.5927 54.776 42.6929 54.776C42.9935 54.776 43.4277 54.776 43.9955 54.8094C44.5967 54.8094 45.0309 54.8428 45.2981 54.8428C45.5987 54.8428 46.0329 54.8428 46.6007 54.8094C47.1685 54.8094 47.6027 54.776 47.9033 54.776C48.1037 54.776 48.2373 54.8428 48.2707 54.9764C48.3041 55.0432 48.3375 55.3104 48.3709 55.7112C48.4043 56.112 48.4377 56.3458 48.4377 56.446C48.4377 56.5128 48.4043 56.5462 48.3041 56.5462C48.2707 56.5462 48.2373 56.5462 48.1705 56.5462C47.1351 56.4794 46.1665 56.446 45.3315 56.446C45.1311 56.446 44.9975 56.4794 44.9307 56.5796C44.8973 56.613 44.8973 56.7466 44.8973 56.9804C44.8973 57.2142 44.9307 57.3812 45.0309 57.448C45.0977 57.5148 45.2313 57.5482 45.4317 57.5482C45.4651 57.5482 45.5319 57.5482 45.6655 57.5482C45.7657 57.5482 45.8659 57.5482 45.9661 57.5482C46.4671 57.5482 46.9681 57.5482 47.4691 57.5148C47.5025 57.5148 47.6361 57.5148 47.8031 57.4814C47.9367 57.4814 48.0369 57.448 48.1371 57.448C48.2373 57.448 48.2707 57.4814 48.2707 57.5816C48.2707 57.5148 48.2373 57.782 48.1705 58.3832C48.1371 58.6504 48.1371 58.951 48.1371 59.2182C48.1371 59.285 48.0703 59.3184 47.9701 59.3184L47.4357 59.2516C47.2019 59.2182 46.7009 59.2182 45.8993 59.2182H45.2647C45.0977 59.2182 44.9975 59.2516 44.9641 59.3184C44.9641 59.3518 44.9641 59.452 44.9641 59.6524C44.9641 59.9196 44.9975 60.0866 45.0309 60.1534C45.0977 60.287 45.3649 60.3538 45.7991 60.3872C45.7991 60.3872 46.0663 60.3872 46.6675 60.3872C46.8679 60.3872 47.2019 60.3872 47.6027 60.3538C48.0035 60.3204 48.3375 60.3204 48.5379 60.3204C48.5713 60.2202 48.6381 60.287 48.6381 60.4206Z" fill="#008A87"/>
<path d="M55.7853 62.0572C55.2509 62.0572 54.9503 62.0572 54.8835 62.0238C54.8167 62.0238 54.7499 61.957 54.6831 61.8568C54.2489 61.0886 53.7813 60.287 53.3137 59.5188C52.6123 58.2496 52.2449 57.5482 52.2449 57.3812C52.2449 57.114 52.2449 56.7132 52.2783 56.1454C52.3117 55.611 52.3117 55.1768 52.3117 54.9096C52.3117 54.776 52.3451 54.7092 52.4453 54.7092C52.6791 54.7092 53.0465 54.7092 53.5141 54.7426C53.9817 54.776 54.3491 54.776 54.5829 54.776C54.6831 54.776 54.7165 54.8094 54.7165 54.8762C54.7165 55.1434 54.6831 55.5776 54.6497 56.1454C54.6163 56.7132 54.5829 57.114 54.5829 57.4146C54.5829 57.615 54.9837 58.3832 55.7853 59.7192C55.9857 59.3852 56.2529 58.951 56.5201 58.45C56.8875 57.782 57.0879 57.3812 57.0879 57.2142C57.0879 56.947 57.0879 56.5796 57.0879 56.0786C57.0879 55.5776 57.0879 55.1768 57.0879 54.943C57.0879 54.8428 57.1213 54.8094 57.1547 54.776H57.3551C57.5555 54.776 57.8895 54.776 58.3571 54.7426C58.7913 54.7092 59.1253 54.7092 59.3591 54.7092C59.4927 54.7092 59.5261 54.7426 59.5261 54.8428C59.5261 55.11 59.5261 55.5108 59.5261 56.0452C59.5261 56.5796 59.5261 56.9804 59.5261 57.2476C59.5261 57.448 59.1253 58.2496 58.3571 59.619C58.0565 60.12 57.6223 60.8548 57.0211 61.8568C56.9877 61.9236 56.9543 61.9904 56.9543 61.9904C56.9543 61.9904 56.8875 61.9904 56.7873 62.0238C56.5201 62.0572 56.2195 62.0572 55.7853 62.0572Z" fill="#008A87"/>
<path d="M62.766 58.1828C62.766 58.5836 62.766 59.2182 62.7994 60.0198C62.8328 60.8214 62.8328 61.456 62.8328 61.8568C62.8328 61.9236 62.7994 61.957 62.766 61.9904C62.766 61.9904 62.6992 61.9904 62.599 62.0238C62.3318 62.0572 61.9978 62.0572 61.5636 62.0572C60.9958 62.0572 60.6284 62.0572 60.4614 62.0238C60.3612 61.9904 60.2944 61.957 60.2944 61.8568C60.2944 61.9236 60.3278 61.623 60.3612 60.955C60.428 59.5522 60.4614 58.617 60.4614 58.1828C60.4614 57.8154 60.4614 57.2476 60.428 56.5128C60.3946 55.778 60.3946 55.2102 60.3946 54.8428C60.3946 54.776 60.428 54.7426 60.5282 54.7426C60.6618 54.7426 60.8288 54.7426 61.096 54.7426C61.3298 54.7426 61.5302 54.7426 61.6638 54.7426C61.7974 54.7426 61.9644 54.7426 62.1982 54.7426C62.432 54.7426 62.6324 54.7426 62.7326 54.7426C62.8328 54.7426 62.8996 54.776 62.8996 54.8428C62.8996 55.2102 62.8662 55.778 62.8328 56.5128C62.766 57.281 62.766 57.8154 62.766 58.1828Z" fill="#008A87"/>
<path d="M69.4129 62.124C69.0789 62.124 68.6447 62.124 68.0769 62.0906C67.3755 62.0906 66.9413 62.0572 66.7409 62.0572L64.9707 62.0238C64.8037 62.0238 64.5365 62.0238 64.2025 61.9904C64.1023 61.957 64.0355 61.9236 64.0355 61.8234C64.0355 61.456 64.0355 60.8882 64.0689 60.12C64.0689 59.3518 64.1023 58.8174 64.1023 58.4166C64.1023 58.0158 64.1023 57.4146 64.0689 56.613C64.0355 55.8114 64.0355 55.2102 64.0355 54.8094C64.0355 54.7426 64.1023 54.7092 64.2025 54.7092C64.3027 54.7092 64.5031 54.7092 64.7369 54.7092C64.9707 54.7092 65.1377 54.7092 65.2713 54.7092C65.4049 54.7092 65.6053 54.7092 65.8391 54.6758C66.1063 54.6758 66.2733 54.6424 66.4069 54.6424C66.4737 54.6424 66.5071 54.6758 66.4737 54.7426V54.8094C66.4403 55.444 66.3735 56.446 66.3067 57.7486V59.118C66.3067 59.5522 66.3067 59.8862 66.3067 60.0866C66.3067 60.12 66.3067 60.1534 66.3067 60.2202C66.3067 60.2536 66.3401 60.287 66.4069 60.287C66.4069 60.287 66.4737 60.287 66.5739 60.287C66.9413 60.287 67.4757 60.287 68.1771 60.2536C68.8785 60.2202 69.4129 60.2202 69.7803 60.2202C69.8805 60.2202 69.9473 60.2536 69.9473 60.3538C69.9473 60.955 69.9139 61.456 69.8137 61.8902C69.7803 61.9904 69.7469 62.0238 69.6801 62.0572C69.6133 62.124 69.5465 62.124 69.4129 62.124Z" fill="#008A87"/>
<path d="M76.026 62.124C75.692 62.124 75.2578 62.124 74.69 62.0906C73.9886 62.0906 73.5544 62.0572 73.354 62.0572L71.5838 62.0238C71.4168 62.0238 71.1496 62.0238 70.8156 61.9904C70.7154 61.957 70.6486 61.9236 70.6486 61.8234C70.6486 61.456 70.6486 60.8882 70.682 60.12C70.682 59.3518 70.7154 58.8174 70.7154 58.4166C70.7154 58.0158 70.7154 57.4146 70.682 56.613C70.6486 55.8114 70.6486 55.2102 70.6486 54.8094C70.6486 54.7426 70.7154 54.7092 70.8156 54.7092C70.9158 54.7092 71.1162 54.7092 71.35 54.7092C71.5838 54.7092 71.7508 54.7092 71.8844 54.7092C72.018 54.7092 72.2184 54.7092 72.4522 54.6758C72.7194 54.6758 72.8864 54.6424 73.02 54.6424C73.0868 54.6424 73.1202 54.6758 73.0868 54.7426V54.8094C73.0534 55.444 72.9866 56.446 72.9198 57.7486V59.118C72.9198 59.5522 72.9198 59.8862 72.9198 60.0866C72.9198 60.12 72.9198 60.1534 72.9198 60.2202C72.9198 60.2536 72.9532 60.287 73.02 60.287C73.02 60.287 73.0868 60.287 73.187 60.287C73.5544 60.287 74.0888 60.287 74.7902 60.2536C75.4916 60.2202 76.026 60.2202 76.3934 60.2202C76.4936 60.2202 76.5604 60.2536 76.5604 60.3538C76.5604 60.955 76.527 61.456 76.4268 61.8902C76.3934 61.9904 76.36 62.0238 76.2932 62.0572C76.2598 62.124 76.1596 62.124 76.026 62.124Z" fill="#008A87"/>
<path d="M83.2741 60.4206C83.2741 60.5542 83.2407 60.8548 83.1739 61.2556C83.1071 61.6898 83.0403 61.957 82.9735 62.0238C82.9401 62.0906 82.8733 62.124 82.7731 62.124C82.7397 62.124 82.6729 62.124 82.6061 62.124C82.3055 62.0906 81.4705 62.0572 80.1011 62.0572C79.8005 62.0572 79.3329 62.0572 78.7317 62.0572C78.1305 62.0572 77.6963 62.0572 77.3957 62.0572C77.2621 62.0572 77.1953 61.9904 77.1953 61.8902C77.1953 61.4894 77.2287 60.9216 77.2621 60.1534C77.2955 59.3852 77.3289 58.784 77.3289 58.4166C77.3289 58.0158 77.2955 57.281 77.2621 56.2122C77.2621 55.945 77.2287 55.5108 77.1953 54.9764V54.9096C77.1953 54.8428 77.2287 54.776 77.3289 54.776C77.6295 54.776 78.0637 54.776 78.6315 54.8094C79.2327 54.8094 79.6669 54.8428 79.9341 54.8428C80.2347 54.8428 80.6689 54.8428 81.2367 54.8094C81.8045 54.8094 82.2387 54.776 82.5393 54.776C82.7397 54.776 82.8733 54.8428 82.9067 54.9764C82.9401 55.0432 82.9735 55.3104 83.0069 55.7112C83.0403 56.112 83.0737 56.3458 83.0737 56.446C83.0737 56.5128 83.0403 56.5462 82.9401 56.5462C82.9067 56.5462 82.8733 56.5462 82.8065 56.5462C81.7711 56.4794 80.8025 56.446 79.9675 56.446C79.7671 56.446 79.6335 56.4794 79.5667 56.5796C79.5333 56.613 79.5333 56.7466 79.5333 56.9804C79.5333 57.2142 79.5667 57.3812 79.6669 57.448C79.7337 57.5148 79.8673 57.5482 80.0677 57.5482C80.1011 57.5482 80.1679 57.5482 80.3015 57.5482C80.4017 57.5482 80.5019 57.5482 80.6021 57.5482C81.1031 57.5482 81.6041 57.5482 82.1051 57.5148C82.1385 57.5148 82.2721 57.5148 82.4391 57.4814C82.5727 57.4814 82.6729 57.448 82.7731 57.448C82.8733 57.448 82.9067 57.4814 82.9067 57.5816C82.9067 57.5148 82.8733 57.782 82.8065 58.3832C82.7731 58.6504 82.7731 58.951 82.7731 59.2182C82.7731 59.285 82.7063 59.3184 82.6061 59.3184L82.0717 59.2516C81.8379 59.2182 81.3369 59.2182 80.5353 59.2182H79.9007C79.7337 59.2182 79.6335 59.2516 79.6001 59.3184C79.6001 59.3518 79.6001 59.452 79.6001 59.6524C79.6001 59.9196 79.6335 60.0866 79.6669 60.1534C79.7337 60.287 80.0009 60.3538 80.4351 60.3872C80.4351 60.3872 80.7023 60.3872 81.3035 60.3872C81.5039 60.3872 81.8379 60.3872 82.2387 60.3538C82.6395 60.3204 82.9735 60.3204 83.1739 60.3204C83.2407 60.2202 83.2741 60.287 83.2741 60.4206Z" fill="#008A87"/>
<path opacity="0.5" d="M64.3034 30.5944L70.5158 38.1094C71.0168 38.744 71.9854 38.744 72.4864 38.1094L81.6714 26.0854L74.9246 20.4408L67.5766 30.0266C67.4096 30.561 66.3408 31.062 65.3388 30.9952C65.0716 30.9952 64.3034 30.5944 64.3034 30.5944Z" fill="url(#paint3_linear_98_9906)"/>
<path opacity="0.5" d="M33.9425 9.519L40.1549 2.004C40.6559 1.3694 41.6245 1.3694 42.1255 2.004L51.3105 14.028L44.5637 19.6726L37.2157 10.0868C37.0487 9.55239 35.9799 9.0514 34.9779 9.1182C34.7107 9.1182 33.9425 9.519 33.9425 9.519Z" fill="url(#paint4_linear_98_9906)"/>
<path opacity="0.5" d="M11.8982 21.7434L5.68579 14.6626C4.91759 14.362 4.65039 13.4268 5.15139 12.7588L11.4306 3.77417L18.7452 8.71737L11.5642 18.4368C11.0966 18.7374 10.9296 19.9064 11.2302 20.8416C11.3304 21.1422 11.8982 21.7434 11.8982 21.7434Z" fill="url(#paint5_linear_98_9906)"/>
<path opacity="0.5" d="M88.7181 22.1442L95.1643 15.2638C95.9325 14.9966 96.2331 14.0614 95.7655 13.3934L89.7869 4.20837L82.3387 8.88437L89.1857 18.8376C89.6533 19.1716 89.7535 20.3406 89.4195 21.2758C89.3193 21.543 88.7181 22.1442 88.7181 22.1442Z" fill="url(#paint6_linear_98_9906)"/>
<defs>
<linearGradient id="paint0_linear_98_9906" x1="-12.7889" y1="36.8486" x2="134.836" y2="-2.18316" gradientUnits="userSpaceOnUse">
<stop stop-color="#008A87"/>
<stop offset="1" stop-color="#00A79D"/>
</linearGradient>
<linearGradient id="paint1_linear_98_9906" x1="-14.8224" y1="28.8824" x2="132.18" y2="-9.98482" gradientUnits="userSpaceOnUse">
<stop offset="0.00534828" stop-color="#008A87"/>
<stop offset="1" stop-color="#00A79D"/>
</linearGradient>
<linearGradient id="paint2_linear_98_9906" x1="-9.62155" y1="44.4245" x2="137.381" y2="5.55728" gradientUnits="userSpaceOnUse">
<stop stop-color="#008A87"/>
<stop offset="1" stop-color="#00A79D"/>
</linearGradient>
<linearGradient id="paint3_linear_98_9906" x1="74.1582" y1="28.9043" x2="65.6947" y2="36.1402" gradientUnits="userSpaceOnUse">
<stop offset="0.1739" stop-color="#008A87" stop-opacity="0"/>
<stop offset="1"/>
</linearGradient>
<linearGradient id="paint4_linear_98_9906" x1="43.8046" y1="11.2154" x2="35.3411" y2="3.97947" gradientUnits="userSpaceOnUse">
<stop offset="0.1739" stop-color="#008A87" stop-opacity="0"/>
<stop offset="1"/>
</linearGradient>
<linearGradient id="paint5_linear_98_9906" x1="11.3628" y1="11.9998" x2="6.80811" y2="22.0493" gradientUnits="userSpaceOnUse">
<stop offset="0.1739" stop-color="#008A87" stop-opacity="0"/>
<stop offset="1"/>
</linearGradient>
<linearGradient id="paint6_linear_98_9906" x1="89.5906" y1="12.4082" x2="93.8059" y2="22.6057" gradientUnits="userSpaceOnUse">
<stop offset="0.1739" stop-color="#008A87" stop-opacity="0"/>
<stop offset="1"/>
</linearGradient>
</defs>
</svg>
