<svg width="16" height="16" viewBox="0 0 16 16" fill="none" xmlns="http://www.w3.org/2000/svg">
<g id="Frame">
<g id="_x31_88_x2C__settings_x2C__App_x2C__installation_x2C__maintenance_x2C__service">
<g id="Group">
<path id="Vector" fill-rule="evenodd" clip-rule="evenodd" d="M9.9053 8.57181L8.88721 9.58987L12.6925 13.3951L13.7105 12.3771L9.9053 8.57181ZM8.64524 9.50919L9.82465 8.32981C9.86911 8.28531 9.94143 8.28531 9.98596 8.32981L13.8718 12.2157L14.8723 11.2152L9.93218 6.27515C9.90624 6.24828 9.89324 6.21025 9.90061 6.17131C10.0546 5.44809 10.0258 4.69428 9.81533 3.98406C9.61227 3.29887 9.24046 2.65262 8.69896 2.11206C7.62061 1.03281 6.06761 0.585904 4.57949 0.922498L7.83296 4.17509C7.87749 4.21962 7.87749 4.2919 7.83296 4.33644L4.65183 7.51756C4.60824 7.56209 4.53499 7.56209 4.49139 7.51756L1.23792 4.26406C0.90133 5.75222 1.34827 7.30431 2.42749 8.38356C2.96899 8.92412 3.6143 9.29687 4.29949 9.49897C5.00877 9.70944 5.7598 9.73815 6.48118 9.58612C6.51918 9.57684 6.56089 9.58612 6.59055 9.61578L11.5315 14.5568L12.5311 13.5563L8.64524 9.67053C8.60074 9.626 8.60074 9.55369 8.64524 9.50919ZM4.11499 3.27103C3.98052 3.27103 3.84514 3.32297 3.7413 3.42587C3.63842 3.52878 3.58742 3.66415 3.58742 3.79953C3.58742 3.9349 3.63842 4.07028 3.7413 4.17409C3.84517 4.27703 3.98055 4.32803 4.11499 4.32803C4.24846 4.32803 4.38105 4.2789 4.48399 4.17969L4.48958 4.17409C4.59246 4.07028 4.64439 3.9349 4.64439 3.79953C4.64439 3.66506 4.59246 3.52878 4.48958 3.42587C4.38574 3.32297 4.25033 3.27103 4.11499 3.27103ZM3.58089 3.26547C3.72836 3.11712 3.92214 3.04384 4.11499 3.04384C4.30874 3.04384 4.50252 3.11712 4.64999 3.26456C4.79833 3.41287 4.87158 3.60665 4.87158 3.79953C4.87158 3.99331 4.79833 4.18709 4.65093 4.3345L4.64252 4.34194C4.49605 4.48469 4.30599 4.55612 4.11499 4.55612C3.92214 4.55612 3.72833 4.48197 3.58089 4.3345C3.43349 4.18709 3.3593 3.99331 3.3593 3.79953C3.3593 3.60665 3.43349 3.41287 3.58089 3.26547ZM3.18317 2.86772L2.47849 4.13703L3.77936 5.43697L5.04771 4.73228L5.75239 3.463L4.45246 2.16209L3.18317 2.86772ZM6.04911 12.4604C5.94524 12.3566 5.80152 12.2926 5.64299 12.2926C5.48721 12.2926 5.34536 12.3547 5.24242 12.4549L5.23689 12.4604C5.13305 12.5643 5.06811 12.708 5.06811 12.8666C5.06811 13.0261 5.13305 13.1697 5.23596 13.2727C5.33983 13.3774 5.48349 13.4414 5.64299 13.4414C5.80152 13.4414 5.94524 13.3765 6.04911 13.2727C6.15293 13.1697 6.21689 13.026 6.21689 12.8666C6.21693 12.708 6.15293 12.5643 6.04911 12.4604ZM5.64299 12.0645C5.86458 12.0645 6.06486 12.1545 6.21043 12.2991C6.35502 12.4447 6.44502 12.645 6.44502 12.8666C6.44502 13.0882 6.35505 13.2884 6.20949 13.434C6.06483 13.5795 5.86458 13.6695 5.64299 13.6695C5.42227 13.6695 5.22108 13.5795 5.07649 13.434C4.92996 13.2884 4.84005 13.0872 4.84005 12.8666C4.84005 12.645 4.92996 12.4447 5.07558 12.2991L5.08299 12.2926C5.22761 12.1517 5.42602 12.0645 5.64299 12.0645ZM5.81914 10.8898H5.46683V11.2431C5.50208 11.2394 5.5373 11.2366 5.57349 11.2347H5.57621H5.58274H5.58549H5.58827H5.59014L5.59293 11.2338H5.59567H5.59755H5.60036H5.60224H5.60496H5.60777H5.60964H5.61242H5.6143H5.61705H5.61893H5.62174H5.62452H5.62633H5.62914H5.63102H5.6338H5.63561H5.63839H5.64027H5.64305H5.64493H5.64764H5.64952H5.6523H5.65508H5.65689H5.65968H5.66155H5.66433H5.66614H5.66892H5.67174H5.67361H5.67636H5.67824H5.68102H5.68289H5.68477H5.68564H5.68843H5.6903H5.69311L5.69583 11.2347H5.69771H5.70052H5.70239H5.7098H5.71258C5.74874 11.2366 5.78399 11.2393 5.81921 11.2431V10.8898H5.81914ZM7.16543 11.5926L6.91696 11.3441L6.66664 11.5945L6.67683 11.6028L6.68143 11.6065L6.6833 11.6084L6.68518 11.6093L6.68705 11.6112L6.68886 11.6131L6.69164 11.6149L6.69352 11.6168L6.69539 11.6177L6.69727 11.6196L6.69821 11.6205L6.69908 11.6214L6.7028 11.6251L6.70468 11.626L6.70655 11.6279L6.70843 11.6288V11.6297L6.71118 11.6316L6.71864 11.6381L6.72046 11.64C6.74833 11.6641 6.77427 11.6872 6.79839 11.7122C6.82433 11.7382 6.85033 11.767 6.87718 11.7976L6.87811 11.7985L6.87905 11.7994L6.87999 11.8013L6.8818 11.8031L6.88368 11.805L6.88555 11.8069L6.88743 11.8087L6.88836 11.8106L6.89024 11.8125V11.8134L6.89205 11.8143L6.89393 11.8171L6.89486 11.8189L6.89674 11.8208L6.89861 11.8227L6.90049 11.8246L6.90136 11.8264L6.90324 11.8283L6.9153 11.8432L7.16543 11.5926ZM7.62064 13.0427V12.6913H7.26739C7.27018 12.7238 7.27299 12.7572 7.27483 12.7905V12.7924V12.8026V12.8054L7.27577 12.8073V12.81V12.8119V12.8147V12.8175V12.8193V12.8222V12.824V12.8268V12.8296V12.8314V12.8342V12.8361V12.8389H7.27664V12.8407V12.8436V12.8463V12.8482V12.851V12.8528V12.8667V12.8816V12.8835V12.8862V12.8881V12.8909V12.8928L7.27577 12.8974V12.9002V12.9048V12.9076V12.9095V12.9122V12.915V12.9169V12.9197V12.9215V12.9243V12.9262L7.27483 12.929V12.9299V12.9317V12.9336V12.9364V12.941V12.9438L7.27389 12.9466V12.9485C7.27296 12.9809 7.27018 13.0116 7.26739 13.043H7.62064V13.0427ZM6.91696 14.389L7.16543 14.1405L6.91605 13.8911C6.8938 13.9171 6.87152 13.9431 6.8493 13.9681L6.84743 13.97L6.84555 13.9718L6.84461 13.9727L6.84183 13.9755L6.84089 13.9774L6.83908 13.9792L6.83536 13.983L6.83443 13.9848L6.83255 13.9867L6.83068 13.9886L6.82886 13.9895L6.82699 13.9913L6.82605 13.9932L6.82418 13.9951L6.8223 13.997L6.82043 13.9988L6.81955 14.0007L6.81768 14.0016L6.81674 14.0025L6.8158 14.0035L6.81393 14.0053L6.81299 14.0072L6.81111 14.0091L6.8093 14.0109L6.80743 14.0118V14.0127L6.80649 14.0137L6.80461 14.0155L6.80274 14.0174L6.80086 14.0193L6.79905 14.0202L6.79811 14.0221L6.79624 14.0239L6.78418 14.0351L6.78324 14.036V14.0369L6.77771 14.0415L6.77583 14.0434L6.77396 14.0452L6.77302 14.0471L6.77114 14.048L6.76927 14.0499L6.76746 14.0517L6.76558 14.0536L6.76371 14.0555L6.76183 14.0564L6.75996 14.0583L6.75902 14.0602L6.75533 14.0629L6.75346 14.0648L6.75158 14.0667C6.72377 14.0917 6.69599 14.1167 6.6663 14.1399L6.91696 14.389ZM5.46683 14.8443H5.81914V14.491C5.78205 14.4947 5.74499 14.4975 5.70696 14.4994H5.70514H5.70236H5.69958H5.69771H5.69499H5.69311H5.6903L5.68752 14.5003H5.68564H5.68289H5.68102H5.67824H5.67543H5.67361H5.67174H5.6708H5.66892H5.66614H5.66433H5.66155H5.65968H5.65689H5.64302H5.62911H5.6263H5.62449H5.62171H5.61983H5.61705H5.61246H5.60967H5.60502H5.6023H5.60043H5.59761L5.59574 14.4994H5.59299H5.59111H5.58833H5.58555H5.58374H5.58096H5.58002H5.57908H5.57627L5.57355 14.4985H5.56889H5.56611H5.56424H5.56149H5.55871L5.55683 14.4975H5.55402C5.52436 14.4966 5.49561 14.4938 5.46689 14.491V14.8443H5.46683ZM4.12055 14.1405L4.36902 14.389L4.61939 14.1396L4.5888 14.1137H4.58786L4.57121 14.0988L4.56933 14.0979L4.56374 14.0923L4.56186 14.0914L4.56005 14.0895L4.55817 14.0877L4.55724 14.0867L4.5563 14.0858L4.55443 14.084L4.55255 14.083L4.55074 14.0812L4.54886 14.0793L4.54699 14.0784V14.0775L4.54511 14.0756L4.54324 14.0747C4.52377 14.0571 4.50524 14.0395 4.48764 14.0218C4.46999 14.0042 4.45239 13.9857 4.4348 13.9662L4.43386 13.9653V13.9644L4.42739 13.957L4.42552 13.9551L4.42364 13.9532L4.42177 13.9514L4.42083 13.9505L4.41989 13.9495L4.41902 13.9477L4.41714 13.9458L4.41527 13.9439L4.41339 13.9421L4.41152 13.9402L4.41058 13.9383L4.40877 13.9365L4.40783 13.9356L4.40689 13.9346L4.40502 13.9328L4.40408 13.9309L4.40221 13.929L4.39852 13.9253L4.39758 13.9226L4.39571 13.9207L4.39199 13.917L4.39011 13.9151L4.38552 13.9095L4.38364 13.9077L4.38271 13.9058V13.9049L4.37064 13.89L4.12055 14.1405ZM4.60917 13.8188L4.64905 13.8605L4.69077 13.9013L4.69264 13.9022L4.69352 13.9041L4.69724 13.9069L4.69817 13.9087L4.70005 13.9097L4.70192 13.9116L4.70286 13.9125L4.70468 13.9143L4.70655 13.9152L4.70749 13.9171H4.70843L4.70936 13.9181L4.71124 13.9199L4.71399 13.9227L4.71586 13.9236L4.7168 13.9255L4.71868 13.9264L4.72055 13.9273V13.9282L4.72149 13.9292L4.72336 13.9301L4.72611 13.9329L4.72799 13.9347L4.72893 13.9357L4.73264 13.9384L4.73352 13.9393L4.74193 13.9458L4.74286 13.9467L4.76974 13.969L4.77068 13.9699L4.77255 13.9708L4.78274 13.9792L4.78368 13.9801H4.78455L4.78549 13.981L4.78736 13.9829L4.78924 13.9838L4.79111 13.9847L4.79205 13.9866L4.79392 13.9875L4.79574 13.9885L4.79668 13.9893L4.79761 13.9903L4.79949 13.9912L4.80136 13.9931L4.8023 13.994L4.80417 13.9949L4.80599 13.9968L4.80786 13.9977L4.80974 13.9986V13.9995L4.81161 14.0004L4.81255 14.0014L4.81442 14.0023L4.81624 14.0042L4.81811 14.0051L4.81999 14.006L4.82186 14.0079L4.82374 14.0088L4.82468 14.0097L4.82649 14.0116L4.82836 14.0125L4.83024 14.0134L4.83211 14.0152L4.83399 14.0162L4.8358 14.0171L4.83674 14.018L4.83768 14.0189L4.83955 14.0198L4.84049 14.0208L4.84327 14.0227L4.84421 14.0236L4.84602 14.0245L4.84789 14.0263L4.84977 14.0273L4.85071 14.0282H4.85164L4.85352 14.03L4.85539 14.031L4.85721 14.0319L4.85908 14.0337L4.86189 14.0356C5.07514 14.1803 5.33286 14.2637 5.60733 14.2721H5.61011H5.62499H5.62774H5.64352C6.01905 14.2721 6.36118 14.1246 6.61336 13.8845L6.63283 13.8659L6.63377 13.8641L6.63564 13.8622L6.63752 13.8603L6.63933 13.8594L6.64027 13.8575C6.88505 13.6109 7.03899 13.2743 7.04918 12.9025V12.8997V12.8849V12.8821V12.8663V12.8534V12.8506V12.8487V12.8468C7.04824 12.7699 7.04083 12.6938 7.02783 12.6206L7.02689 12.6187V12.6141L7.02596 12.6122V12.6113V12.6104L7.02502 12.6086C6.98983 12.4138 6.91283 12.233 6.8053 12.0754L6.80436 12.0745L6.80343 12.0726L6.80249 12.0707L6.80155 12.0689L6.79974 12.067V12.0661L6.7988 12.0652L6.79693 12.0624L6.79505 12.0605L6.79318 12.0568L6.7913 12.0559L6.78949 12.0522L6.78855 12.0503L6.78668 12.0494L6.78574 12.0475L6.7848 12.0457L6.78386 12.0438L6.78199 12.0429L6.78105 12.041L6.78011 12.0392L6.77924 12.0373L6.77736 12.0363L6.77643 12.0345L6.77549 12.0326L6.77361 12.0307L6.77268 12.0289L6.77174 12.028L6.7708 12.0261L6.76986 12.0252L6.76899 12.0243L6.76805 12.0233L6.76711 12.0215L6.76524 12.0196L6.7643 12.0177L6.76336 12.0168L6.76243 12.015L6.76055 12.0131L6.75961 12.0122V12.0112L6.75874 12.0103L6.75686 12.0085L6.75221 12.0029L6.75127 12.001L6.75033 11.9992L6.74939 11.9982L6.74852 11.9973C6.72993 11.9742 6.71046 11.951 6.69005 11.9278L6.68911 11.9268L6.6873 11.925L6.68636 11.9231L6.68449 11.9222L6.68355 11.9213L6.68261 11.9204L6.68168 11.9185L6.6798 11.9176L6.67886 11.9157L6.67705 11.9138L6.67611 11.9129L6.67424 11.9111L6.67236 11.9092V11.9083L6.67143 11.9074L6.66955 11.9064L6.66861 11.9046L6.6668 11.9027L6.66493 11.9018L6.66399 11.8999L6.66211 11.8981L6.65286 11.8888L6.65099 11.8869L6.64911 11.8841H6.64818L6.64636 11.8822L6.64543 11.8804L6.63708 11.872L6.62871 11.8646L6.62689 11.8627L6.62596 11.8609L6.62224 11.8581L6.62036 11.8562L6.61943 11.8544L6.61755 11.8534L6.6148 11.8497H6.61386L6.61108 11.8469L6.60921 11.8451L6.60827 11.8442L6.60646 11.8423L6.60458 11.8414L6.60271 11.8395L6.60177 11.8386V11.8377L6.59989 11.8367L6.59802 11.8349L6.59714 11.834L6.59527 11.8321L6.59339 11.8302L6.59246 11.8293L6.59058 11.8274H6.58964L6.58871 11.8265L6.58689 11.8247L6.58596 11.8237L6.58408 11.8219C6.55808 11.7987 6.53124 11.7755 6.50343 11.7542H6.50249L6.50155 11.7533L6.47002 11.7292L6.46814 11.7283L6.46627 11.7264L6.46446 11.7255L6.46352 11.7246H6.46258L6.46071 11.7227L6.45883 11.7218L6.45789 11.7199L6.45602 11.719L6.45421 11.7181L6.45233 11.7172L6.45046 11.7153L6.44858 11.7144L6.44671 11.7135L6.44489 11.7116L6.44302 11.7107L6.44114 11.7097L6.44021 11.7079L6.43833 11.7069L6.43646 11.706L6.43464 11.7042L6.43277 11.7033L6.43089 11.7023L6.42902 11.7005L6.42624 11.6996L6.42443 11.6977C6.21205 11.554 5.95711 11.4705 5.68452 11.4613H5.68264H5.68077H5.67889H5.67796H5.67608H5.67427H5.67149H5.66961H5.66683H5.66502H5.66314H5.66127H5.66033H5.65846L5.65567 11.4603H5.65386H5.65199H5.64921H5.64733H5.64461H5.64274H5.63996H5.63808H5.63621H5.63346H5.63158H5.6288L5.62692 11.4613H5.62505H5.62418H5.6223H5.62043H5.61764H5.61577H5.61396H5.61118H5.6093H5.60743H5.60649H5.60461H5.6028H5.60002C5.23005 11.4724 4.89624 11.6263 4.65152 11.8692L4.65058 11.8711L4.64871 11.872L4.64683 11.8739L4.64496 11.8757C4.40111 12.1215 4.2463 12.4581 4.23699 12.8308V12.8327V12.8484V12.8503V12.8661V12.8799V12.8818V12.8846V12.8865C4.23792 12.9671 4.2463 13.045 4.26017 13.122V13.1229V13.1248L4.26205 13.135H4.26299C4.29914 13.3259 4.37517 13.504 4.48086 13.6588L4.48274 13.6607L4.48367 13.6626L4.48461 13.6644L4.48555 13.6653L4.48649 13.6663L4.48742 13.6672L4.48836 13.6691L4.4893 13.6709L4.49018 13.6728L4.49205 13.6737L4.49392 13.6774L4.49486 13.6793L4.49674 13.6802V13.6811L4.49767 13.682L4.49861 13.6839L4.50042 13.6857L4.50136 13.6877L4.5023 13.6886L4.50324 13.6904L4.50511 13.6923L4.50605 13.6942L4.50699 13.6951L4.50792 13.6969L4.5098 13.6988L4.51067 13.7007L4.51161 13.7016L4.51255 13.7035L4.51442 13.7053L4.51536 13.7072L4.5163 13.7081L4.51817 13.71L4.51911 13.7118L4.52464 13.7193L4.52652 13.7211L4.52839 13.7239L4.53027 13.7258L4.53208 13.7286L4.53396 13.7305L4.53674 13.7351L4.53861 13.7369L4.54049 13.7397L4.5423 13.7416L4.54508 13.7462L4.54696 13.7471V13.748L4.57567 13.7814L4.57661 13.7833L4.57755 13.7852L4.57942 13.7861V13.787L4.58036 13.7879L4.58218 13.7898L4.58311 13.7907L4.58499 13.7925L4.58592 13.7944L4.5878 13.7953L4.58874 13.7972L4.59061 13.7991L4.59149 13.8L4.59336 13.8018L4.5943 13.8037L4.59617 13.8047L4.59711 13.8065L4.59899 13.8084L4.59992 13.8093L4.60174 13.8112L4.60267 13.8121V13.813L4.60455 13.8139L4.60549 13.8158L4.60736 13.8177L4.60917 13.8188ZM3.6653 12.6913V13.0427H4.01855C4.01483 13.0103 4.01302 12.9769 4.01114 12.9435V12.9407V12.9314L4.01021 12.9287V12.9259V12.924V12.9212V12.9194V12.9166V12.9147V12.9119V12.9092V12.9073V12.9045L4.00927 12.9026V12.8998V12.897V12.8952V12.8924V12.8905V12.8877V12.8859V12.8831V12.8812V12.8664V12.8525V12.8506V12.8478V12.8459V12.8432V12.8404V12.8357V12.8339L4.01021 12.8292V12.8265V12.8246V12.8237V12.8218V12.819V12.8172V12.8144V12.8116V12.8097V12.807V12.8051V12.8032L4.01114 12.8023V12.7995V12.7977V12.7921V12.7902V12.7874V12.7846C4.01302 12.7531 4.01574 12.7216 4.01855 12.691H3.6653V12.6913ZM8.57568 6.17684C8.68233 6.28256 8.84274 6.12215 8.73702 6.01553L8.57568 5.85512C8.47002 5.7485 8.30868 5.90981 8.41436 6.01553L8.57568 6.17684ZM9.22011 6.82125C9.32577 6.92697 9.48711 6.76656 9.38143 6.65994L9.22011 6.49859C9.1144 6.3929 8.95305 6.55422 9.05874 6.65994L9.22011 6.82125ZM9.86449 7.46566C9.97021 7.57137 10.1316 7.41 10.0258 7.30431L9.86449 7.143C9.75877 7.03728 9.59746 7.19862 9.70318 7.30431L9.86449 7.46566ZM10.5089 8.11006C10.6146 8.21575 10.7759 8.05441 10.6702 7.94872L10.5089 7.78737C10.4032 7.68169 10.2419 7.843 10.3475 7.94872L10.5089 8.11006ZM11.1533 8.75447C11.259 8.86016 11.4203 8.69881 11.3146 8.59309L11.1533 8.43178C11.0476 8.32606 10.8862 8.4874 10.992 8.59309L11.1533 8.75447ZM11.7976 9.39884C11.9034 9.50456 12.0647 9.34325 11.959 9.23753L11.7976 9.07622C11.692 8.9705 11.5306 9.13184 11.6363 9.23753L11.7976 9.39884ZM12.4421 10.0432C12.5478 10.149 12.7091 9.98765 12.6035 9.88194L12.4421 9.72062C12.3364 9.6149 12.1751 9.77622 12.2808 9.88194L12.4421 10.0432ZM13.0865 10.6877C13.1922 10.7934 13.3535 10.6321 13.2478 10.5263L13.0865 10.365C12.9827 10.2612 12.8213 10.4225 12.9252 10.5263L13.0865 10.6877ZM13.667 11.2681C13.7726 11.3738 13.934 11.2124 13.8283 11.1067L13.7309 11.0094C13.6271 10.9056 13.4657 11.0669 13.5696 11.1707L13.667 11.2681ZM7.9313 5.21072C7.82558 5.10409 7.66424 5.2654 7.77089 5.37112L7.9313 5.53244C8.03789 5.63906 8.19827 5.47775 8.09264 5.37112L7.9313 5.21072ZM6.2373 8.531C6.34118 8.63484 6.50249 8.47353 6.39864 8.36966L6.23824 8.20834C6.13252 8.10262 5.97121 8.26397 6.07692 8.36966L6.2373 8.531ZM6.88168 9.1754C6.98833 9.28109 7.14968 9.11978 7.04302 9.01406L6.88168 8.85275C6.77693 8.74703 6.61561 8.90834 6.7213 9.01406L6.88168 9.1754ZM7.52614 9.81978C7.6318 9.9255 7.79314 9.76419 7.68749 9.65847L7.52614 9.49715C7.42043 9.39144 7.25908 9.55275 7.3648 9.65847L7.52614 9.81978ZM8.17049 10.4642C8.27714 10.5699 8.43755 10.4086 8.3318 10.3029L8.17049 10.1415C8.06483 10.0358 7.90352 10.1972 8.00918 10.3029L8.17049 10.4642ZM8.81493 11.1086C8.92058 11.2143 9.08193 11.053 8.97624 10.9473L8.81493 10.786C8.70918 10.6803 8.54786 10.8407 8.65355 10.9473L8.81493 11.1086ZM9.4593 11.7521C9.56502 11.8587 9.72636 11.6973 9.62064 11.5917L9.4593 11.4303C9.35355 11.3246 9.19224 11.486 9.29796 11.5917L9.4593 11.7521ZM10.1037 12.3974C10.2094 12.5031 10.3707 12.3418 10.265 12.2361L10.1037 12.0747C9.99802 11.969 9.83668 12.1304 9.94236 12.2361L10.1037 12.3974ZM10.7481 13.0418C10.8538 13.1475 11.0151 12.9862 10.9095 12.8805L10.7481 12.7192C10.6424 12.6134 10.4811 12.7748 10.5868 12.8805L10.7481 13.0418ZM11.3285 13.6222C11.4352 13.7279 11.5965 13.5666 11.4898 13.4609L11.3925 13.3636C11.2868 13.2578 11.1264 13.4192 11.2321 13.5249L11.3285 13.6222ZM5.59386 7.56394C5.48721 7.45822 5.32586 7.61959 5.43246 7.72528L5.59289 7.88659C5.69952 7.99228 5.86083 7.83191 5.75424 7.72528L5.59386 7.56394ZM12.8111 14.6041C12.8732 14.6041 12.9242 14.6551 12.9242 14.7182C12.9242 14.7803 12.8732 14.8322 12.8111 14.8322H6.24377C6.18077 14.8322 6.12977 14.7803 6.12977 14.7182C6.12977 14.6551 6.18077 14.6041 6.24377 14.6041H12.8111ZM8.96511 14.9592C9.02821 14.9592 9.07911 15.0102 9.07911 15.0733C9.07911 15.1363 9.02818 15.1873 8.96511 15.1873H4.42092C4.3588 15.1873 4.30692 15.1363 4.30692 15.0733C4.30692 15.0102 4.3588 14.9592 4.42092 14.9592H8.96511ZM3.95642 14.9592C4.01949 14.9592 4.07049 15.0102 4.07049 15.0733C4.07049 15.1363 4.01949 15.1873 3.95642 15.1873H3.38805C3.32505 15.1873 3.27405 15.1363 3.27405 15.0733C3.27405 15.0102 3.32505 14.9592 3.38805 14.9592H3.95642ZM13.7365 14.8943C13.7986 14.8943 13.8505 14.9453 13.8505 15.0084C13.8505 15.0714 13.7986 15.1224 13.7365 15.1224H11.5826C11.5204 15.1224 11.4694 15.0714 11.4694 15.0084C11.4694 14.9453 11.5204 14.8943 11.5826 14.8943H13.7365ZM4.36899 11.3441L4.12052 11.5926L4.36989 11.843C4.39124 11.8161 4.41352 11.7901 4.43671 11.7651L4.43858 11.7632L4.44039 11.7613L4.44133 11.7604L4.44321 11.7576L4.44508 11.7567L4.44696 11.7548L4.44974 11.7512L4.45155 11.7493L4.45342 11.7474L4.4553 11.7455L4.45718 11.7437L4.45811 11.7418L4.45905 11.7409L4.45992 11.74L4.4618 11.7391L4.46367 11.7372L4.46461 11.7353L4.46649 11.7335L4.46836 11.7316L4.4693 11.7307L4.47018 11.7297L4.47111 11.7279L4.47299 11.7269L4.47486 11.7251L4.47674 11.7232L4.47861 11.7213L4.47955 11.7195L4.48136 11.7186L4.48324 11.7167L4.48511 11.7148L4.48605 11.713L4.48792 11.712L4.4898 11.7102L4.49161 11.7083L4.49255 11.7064L4.49442 11.7046L4.4963 11.7037L4.49724 11.7018H4.49817L4.50005 11.6999L4.50092 11.6981L4.5028 11.6971L4.50467 11.6953L4.50655 11.6934L4.50749 11.6925L4.50842 11.6916L4.5103 11.6907L4.51117 11.6888L4.51305 11.6869L4.51492 11.6851L4.5168 11.6832L4.51867 11.6822L4.52055 11.6804L4.52236 11.6785L4.52424 11.6767L4.52517 11.6757L4.52705 11.6739L4.5308 11.6702L4.53261 11.6683L4.53449 11.6674L4.53727 11.6646L4.53821 11.6637L4.54008 11.6618L4.54189 11.6609C4.56696 11.6377 4.59289 11.6155 4.61886 11.5941L4.36899 11.3441Z" fill="#006C67"/>
</g>
</g>
</g>
</svg>
