<svg width="16" height="16" viewBox="0 0 16 16" fill="none" xmlns="http://www.w3.org/2000/svg">
<g id="Frame">
<g id="_x31_77_x2C__frontend_x2C__interface_x2C__mobile_x2C__phone_x2C__developer">
<g id="Group">
<path id="Vector" fill-rule="evenodd" clip-rule="evenodd" d="M11.749 11.9226H4.09301V13.4852V13.4902V13.4912L4.09357 13.4962V13.4972V13.5022V13.5032V13.5082V13.5092L4.09401 13.5143L4.09457 13.5203L4.09501 13.5263L4.09557 13.5323L4.09601 13.5383L4.09657 13.5444L4.09757 13.5494V13.5504L4.09854 13.5554L4.09964 13.5614L4.10064 13.5674L4.10164 13.5735L4.10261 13.5785L4.10361 13.5845L4.10514 13.5896L4.10667 13.5956L4.10811 13.6016L4.10964 13.6066L4.11117 13.6127L4.1127 13.6177L4.11467 13.6237L4.1162 13.6287L4.11773 13.6347L4.1197 13.6397L4.12167 13.6458L4.12376 13.6508L4.12573 13.6558L4.1277 13.6609L4.13023 13.6669L4.13276 13.6719L4.13473 13.6769L4.13726 13.682L4.13979 13.687L4.14186 13.692L4.14482 13.697L4.14736 13.703L4.14989 13.7071L4.15286 13.7121L4.15592 13.7171L4.15845 13.7221L4.16142 13.7272L4.16448 13.7322L4.16745 13.7372L4.17051 13.7412L4.17401 13.7462L4.17711 13.7513L4.18007 13.7553L4.18357 13.7603L4.18707 13.7643L4.19014 13.7694L4.19364 13.7734L4.19714 13.7784L4.2012 13.7824L4.20417 13.7865L4.20823 13.7915L4.21173 13.7955L4.21523 13.7995L4.21929 13.8036L4.22323 13.8076L4.22729 13.8116L4.23132 13.8156C4.31579 13.9011 4.43336 13.9534 4.56211 13.9534H11.28H11.286H11.292H11.2976H11.298H11.3031H11.304H11.3091L11.3101 13.9524H11.3151H11.3161H11.3211H11.3217L11.3267 13.9514H11.3277H11.3322L11.3332 13.9504H11.3383H11.3392L11.3438 13.9494H11.3453L11.3493 13.9484H11.3513L11.3553 13.9474H11.3569L11.3608 13.9464H11.3624L11.3664 13.9454H11.3684L11.3725 13.9444H11.374L11.3775 13.9434H11.38L11.3835 13.9424L11.3855 13.9414H11.3886L11.391 13.9404L11.3946 13.9394H11.3966L11.3995 13.9384L11.4026 13.9374L11.4051 13.9364H11.4076L11.4106 13.9354L11.4137 13.9344L11.4162 13.9334L11.4188 13.9324H11.4217L11.4248 13.9314L11.4268 13.9304L11.4297 13.9294L11.4318 13.9284L11.4353 13.9274L11.4373 13.9264L11.4408 13.9254L11.4429 13.9244L11.4458 13.9234L11.4478 13.9224L11.4518 13.9214L11.4528 13.9204L11.4569 13.9194L11.4584 13.9184L11.4619 13.9174L11.4635 13.9164L11.467 13.9144H11.4689L11.4724 13.9125H11.474L11.4775 13.9104L11.4785 13.9095L11.483 13.9074H11.484L11.488 13.9055H11.489L11.4981 13.9004L11.4985 13.8994L11.5031 13.8975L11.5082 13.8944L11.5131 13.8924L11.5181 13.8894L11.5362 13.8773H11.5372L11.5413 13.8743L11.5463 13.8703L11.5504 13.8683L11.5508 13.8673L11.5543 13.8653L11.5554 13.8643L11.5634 13.8583L11.5644 13.8572L11.5775 13.8472L11.5805 13.8442L11.582 13.8432L11.5905 13.8361L11.593 13.8341L11.5946 13.8322L11.5971 13.8301L11.5986 13.8282L11.6011 13.8262L11.6026 13.8252L11.6051 13.8232L11.6072 13.8212L11.6111 13.8161C11.6298 13.798 11.6469 13.7779 11.6619 13.7568V13.7558L11.6751 13.7377L11.6811 13.7277L11.6891 13.7136V13.7126L11.692 13.7086V13.7076L11.6946 13.7036H11.6951L11.6971 13.6985V13.6976L11.7002 13.6935V13.6925L11.7021 13.6885L11.7027 13.6875L11.7052 13.6835V13.6825L11.7072 13.6774L11.7097 13.6724L11.7123 13.6674L11.7142 13.6624V13.6614L11.7183 13.6523V13.6513L11.7203 13.6463L11.7223 13.6413V13.6403L11.7243 13.6353L11.7263 13.6302V13.6292L11.7278 13.6242L11.7294 13.6192V13.6182L11.7313 13.6132L11.7323 13.6082L11.7329 13.6072L11.7343 13.6022L11.7354 13.5961H11.7358L11.7368 13.5911L11.7374 13.5901L11.7384 13.5851L11.7394 13.579L11.7405 13.574L11.7414 13.568L11.7424 13.562L11.7434 13.557L11.7439 13.5559L11.7444 13.5509V13.5499L11.7454 13.5449L11.7459 13.5389H11.7465V13.5329L11.7475 13.5268V13.5208H11.7479V13.5148H11.7485V13.5098V13.5088V13.5038L11.7489 13.5027V13.4977V13.4967V13.4917V13.4857V11.9226H11.749ZM4.09301 11.6752H11.749V11.3534H8.72598C8.65758 11.3534 8.60229 11.2981 8.60229 11.2298V8.30675C8.60229 8.23837 8.65758 8.18303 8.72598 8.18303H11.749C11.749 6.06943 11.749 3.95481 11.749 1.84022C11.749 1.71153 11.6962 1.59487 11.6108 1.5094C11.5264 1.42497 11.4086 1.37165 11.2799 1.37165H4.56207C4.43332 1.37165 4.31576 1.42393 4.23076 1.5094C4.14576 1.59384 4.09301 1.71153 4.09301 1.84022V2.63662H10.735C10.8034 2.63662 10.8587 2.69193 10.8587 2.76031C10.8587 2.82868 10.8034 2.88397 10.735 2.88397H4.09301V3.63912H4.97992C5.0477 3.63912 5.10307 3.69443 5.10307 3.76281V5.7829C5.10307 5.85128 5.0477 5.90656 4.97992 5.90656H4.09301V11.6752ZM8.1422 12.713C8.08539 12.6566 8.00698 12.6214 7.92098 12.6214C7.83498 12.6214 7.75657 12.6566 7.70032 12.713C7.64351 12.7693 7.60873 12.8477 7.60873 12.9342C7.60873 13.0206 7.64351 13.099 7.70032 13.1554C7.75657 13.2117 7.83501 13.2469 7.92098 13.2469C8.00751 13.2469 8.08536 13.2117 8.1422 13.1554C8.19858 13.099 8.23379 13.0206 8.23379 12.9342C8.23379 12.8477 8.19854 12.7692 8.1422 12.713ZM7.92098 12.3741C8.07586 12.3741 8.21611 12.4374 8.31667 12.538C8.41823 12.6395 8.48108 12.7793 8.48108 12.9342C8.48108 13.089 8.41823 13.2288 8.31667 13.3303C8.21611 13.4319 8.07586 13.4942 7.92098 13.4942C7.76667 13.4942 7.62642 13.4319 7.52529 13.3303C7.42373 13.2288 7.36145 13.089 7.36145 12.9342C7.36145 12.7793 7.42373 12.6395 7.52529 12.538C7.62642 12.4374 7.76667 12.3741 7.92098 12.3741ZM8.84958 8.4304V11.1061H11.8727H11.8762H13.0381V8.4304C11.6419 8.4304 10.2458 8.4304 8.84958 8.4304ZM4.66264 1.12434H11.2799C11.477 1.12434 11.656 1.20478 11.7857 1.3345C11.9155 1.46422 11.9964 1.64318 11.9964 1.84028V7.62403H12.2915V1.28118C12.2915 1.15247 12.2382 1.03481 12.1538 0.950372C12.0683 0.864872 11.9511 0.812622 11.8219 0.812622H5.10504C4.98036 0.812622 4.86617 0.860872 4.78226 0.94131C4.72898 0.991591 4.68776 1.05397 4.66264 1.12434ZM7.3237 2.19115C7.25582 2.19115 7.20001 2.13584 7.20001 2.0675C7.20001 1.99912 7.25582 1.94381 7.3237 1.94381H8.51879C8.58714 1.94381 8.64248 1.99912 8.64248 2.0675C8.64248 2.13587 8.58714 2.19115 8.51879 2.19115H7.3237ZM9.2332 9.04884C9.16533 9.04884 9.10951 8.99353 9.10951 8.92515C9.10951 8.85678 9.16533 8.80147 9.2332 8.80147H10.7893C10.8577 8.80147 10.913 8.85678 10.913 8.92515C10.913 8.99353 10.8577 9.04884 10.7893 9.04884H9.2332ZM9.2332 9.56462C9.16533 9.56462 9.10951 9.50931 9.10951 9.44096C9.10951 9.37262 9.16533 9.31728 9.2332 9.31728H12.6545C12.7229 9.31728 12.7781 9.37262 12.7781 9.44096C12.7781 9.50931 12.7228 9.56462 12.6545 9.56462H9.2332ZM9.2332 10.0805C9.16533 10.0805 9.10951 10.0252 9.10951 9.95678C9.10951 9.8884 9.16533 9.83312 9.2332 9.83312H12.6545C12.7229 9.83312 12.7781 9.88843 12.7781 9.95678C12.7781 10.0252 12.7228 10.0805 12.6545 10.0805H9.2332ZM9.2332 10.5963C9.16533 10.5963 9.10951 10.541 9.10951 10.4727C9.10951 10.4043 9.16533 10.3489 9.2332 10.3489H12.6545C12.7229 10.3489 12.7781 10.4043 12.7781 10.4727C12.7781 10.541 12.7228 10.5963 12.6545 10.5963H9.2332ZM3.53092 4.896C3.46304 4.896 3.40776 4.84068 3.40776 4.77234C3.40776 4.704 3.46304 4.64868 3.53092 4.64868H3.84611V4.33393C3.84611 4.26556 3.90139 4.21028 3.96982 4.21028C4.0377 4.21028 4.09298 4.26559 4.09298 4.33393V4.64868H4.40773C4.47607 4.64868 4.53132 4.704 4.53132 4.77234C4.53132 4.84068 4.47604 4.896 4.40773 4.896H4.09298V5.21075C4.09298 5.27912 4.0377 5.3344 3.96982 5.3344C3.90139 5.3344 3.84611 5.27909 3.84611 5.21075V4.896H3.53092ZM6.18048 3.79197C6.11261 3.79197 6.05679 3.73565 6.05679 3.66828C6.05679 3.5999 6.11261 3.54462 6.18048 3.54462H8.27795C8.34583 3.54462 8.40167 3.59993 8.40167 3.66828C8.40167 3.73565 8.34583 3.79197 8.27795 3.79197H6.18048ZM6.18048 4.46165C6.11261 4.46165 6.05679 4.40631 6.05679 4.33797C6.05679 4.27059 6.11261 4.21431 6.18048 4.21431H9.25789C9.32623 4.21431 9.38148 4.27059 9.38148 4.33797C9.38148 4.40634 9.3262 4.46165 9.25789 4.46165H6.18048ZM6.18048 5.13231C6.11261 5.13231 6.05679 5.077 6.05679 5.00862C6.05679 4.94025 6.11261 4.88493 6.18048 4.88493H10.7711C10.8395 4.88493 10.8948 4.94028 10.8948 5.00862C10.8948 5.077 10.8395 5.13231 10.7711 5.13231H6.18048ZM6.18048 5.803C6.11261 5.803 6.05679 5.74765 6.05679 5.67931C6.05679 5.61097 6.11261 5.55562 6.18048 5.55562H10.7711C10.8395 5.55562 10.8948 5.61097 10.8948 5.67931C10.8948 5.74765 10.8395 5.803 10.7711 5.803H6.18048ZM6.18048 6.47368C6.11261 6.47368 6.05679 6.41837 6.05679 6.35C6.05679 6.28162 6.11261 6.22631 6.18048 6.22631H10.7711C10.8395 6.22631 10.8948 6.28162 10.8948 6.35C10.8948 6.41837 10.8395 6.47368 10.7711 6.47368H6.18048ZM2.38761 14.7038C2.31926 14.7038 2.26401 14.6485 2.26401 14.5802C2.26401 14.5118 2.31929 14.4565 2.38761 14.4565H10.3348C10.4027 14.4565 10.4579 14.5118 10.4579 14.5802C10.4579 14.6485 10.4026 14.7038 10.3348 14.7038H2.38761ZM13.7907 14.9402C13.8586 14.9402 13.9145 14.9955 13.9145 15.0638C13.9145 15.1322 13.8586 15.1875 13.7907 15.1875H6.77723C6.70936 15.1875 6.65354 15.1322 6.65354 15.0638C6.65354 14.9955 6.70936 14.9402 6.77723 14.9402H13.7907ZM6.21461 14.9402C6.28248 14.9402 6.33833 14.9955 6.33833 15.0638C6.33833 15.1322 6.28248 15.1875 6.21461 15.1875H5.52742C5.45898 15.1875 5.4037 15.1322 5.4037 15.0638C5.4037 14.9955 5.45898 14.9402 5.52742 14.9402H6.21461ZM10.8848 14.7038C10.8169 14.7038 10.761 14.6485 10.761 14.5802C10.761 14.5118 10.8169 14.4565 10.8848 14.4565H11.5725C11.6409 14.4565 11.6962 14.5118 11.6962 14.5802C11.6962 14.6485 11.6409 14.7038 11.5725 14.7038H10.8848ZM2.08545 5.34147C2.08545 5.38875 2.11561 5.437 2.15486 5.45306C2.23732 5.49431 2.33232 5.43097 2.33232 5.34147V5.09509C2.33232 5.04784 2.30161 4.99956 2.26289 4.98353C2.18051 4.94228 2.08545 5.00562 2.08545 5.09509V5.34147ZM2.08545 6.3299C2.08545 6.37715 2.11561 6.42543 2.15486 6.44153C2.23732 6.48172 2.33232 6.41937 2.33232 6.3299V6.08356C2.33232 6.03625 2.30161 5.98803 2.26289 5.97193C2.18051 5.93075 2.08545 5.99406 2.08545 6.08356V6.3299ZM3.01361 6.63756C3.06032 6.63756 3.10914 6.6064 3.1247 6.56718C3.16592 6.48575 3.10311 6.39022 3.01361 6.39022H2.7662C2.71992 6.39022 2.67123 6.4204 2.65564 6.45959C2.61442 6.54206 2.6767 6.63756 2.7662 6.63756H3.01361ZM2.96173 7.42993C2.96173 7.47618 2.99245 7.52547 3.0317 7.54053C3.11407 7.58178 3.20914 7.5194 3.20914 7.42993V7.18259C3.20914 7.13634 3.17845 7.08703 3.13973 7.07197C3.05726 7.03078 2.96173 7.09309 2.96173 7.18259V7.42993ZM2.96173 8.41837C2.96173 8.46459 2.99245 8.5139 3.0317 8.52896C3.11407 8.57018 3.20914 8.50787 3.20914 8.41837V8.171C3.20914 8.12478 3.17845 8.07547 3.13973 8.0604C3.05726 8.01918 2.96173 8.08153 2.96173 8.171V8.41837ZM2.96173 9.40681C2.96173 9.45303 2.99245 9.50131 3.0317 9.5174C3.11407 9.55862 3.20914 9.49528 3.20914 9.40681V9.15943C3.20914 9.11218 3.17845 9.0639 3.13973 9.04781C3.05726 9.00662 2.96173 9.06997 2.96173 9.15943V9.40681ZM2.96173 10.3942C2.96173 10.4415 2.99245 10.4897 3.0317 10.5058C3.11407 10.547 3.20914 10.4837 3.20914 10.3942V10.1478C3.20914 10.1006 3.17845 10.0523 3.13973 10.0362C3.05726 9.99503 2.96173 10.0583 2.96173 10.1478V10.3942ZM2.96173 11.3826C2.96173 11.4299 2.99245 11.4782 3.0317 11.4942C3.11407 11.5354 3.20914 11.4721 3.20914 11.3826V11.1363C3.20914 11.089 3.17845 11.0407 3.13973 11.0247C3.05726 10.9835 2.96173 11.0468 2.96173 11.1363V11.3826ZM2.33232 4.10668C2.33232 4.05943 2.30161 4.01115 2.26289 3.99506C2.18051 3.95387 2.08545 4.01722 2.08545 4.10668V4.35406C2.08545 4.40028 2.11561 4.44853 2.15486 4.46465C2.23732 4.50587 2.33232 4.44353 2.33232 4.35406V4.10668ZM4.8562 5.65922V3.88647C4.26495 3.88647 3.67414 3.88647 3.08292 3.88647V5.65922C3.67417 5.65922 4.26495 5.65922 4.8562 5.65922Z" fill="#006C67"/>
</g>
</g>
</g>
</svg>
