<svg width="20" height="21" viewBox="0 0 20 21" fill="none" xmlns="http://www.w3.org/2000/svg">
<g id="Iconsax">
<path id="Vector" d="M11.5 16.25H8.00002L7.58335 15.125H1.29169V4.41667C1.29169 3.91667 1.70835 3.5 2.20835 3.5H17.7917C18.2917 3.5 18.7084 3.91667 18.7084 4.41667V15.1667H12.3334L11.5 16.25ZM8.45835 15.625H11.2084L12.0417 14.5H18.0834V4.41667C18.0834 4.25 17.9584 4.125 17.7917 4.125H2.20835C2.04169 4.125 1.91669 4.25 1.91669 4.41667V14.5417H8.04169L8.45835 15.625Z" fill="white"/>
<path id="Vector_2" d="M17 17.5H3.00002C1.50002 17.5 0.291687 16.2917 0.291687 14.7917V14.4583H8.00002L8.41669 15.5833H11.1667L12 14.4583H19.6667V14.7917C19.7084 16.2917 18.4584 17.5 17 17.5ZM0.958354 15.125C1.12502 16.125 1.95835 16.875 3.00002 16.875H16.9584C18 16.875 18.875 16.125 19 15.125H12.3334L11.5 16.25H8.00002L7.58335 15.125H0.958354Z" fill="white"/>
<path id="Vector_3" d="M6.95833 5.70833H3.75V8.49999H6.95833V5.70833Z" fill="white"/>
<path id="Vector_4" d="M7.25002 8.79167H3.41669V5.375H7.25002V8.79167ZM4.04169 8.16667H6.62502V6H4.04169V8.16667Z" fill="white"/>
<path id="Vector_5" d="M6.95833 10.125H3.75V12.9167H6.95833V10.125Z" fill="white"/>
<path id="Vector_6" d="M7.25002 13.25H3.41669V9.83333H7.25002V13.25ZM4.04169 12.625H6.62502V10.4583H4.04169V12.625Z" fill="white"/>
<path id="Vector_7" d="M16.4166 6.75H8.95831V7.375H16.4166V6.75Z" fill="white"/>
<path id="Vector_8" d="M16.4166 11.2083H8.95831V11.8333H16.4166V11.2083Z" fill="white"/>
</g>
</svg>
