<svg width="16" height="16" viewBox="0 0 16 16" fill="none" xmlns="http://www.w3.org/2000/svg">
<g id="Layer_2">
<g id="Group">
<path id="Vector" d="M13.0887 2.89258H2.91555C2.65155 2.89258 2.43555 3.10858 2.43555 3.37258V9.15594H13.5687V3.37258C13.5687 3.10858 13.3527 2.89258 13.0887 2.89258ZM5.68785 3.49893H5.99414C6.10414 3.49893 6.19414 3.58893 6.19414 3.69893C6.19414 3.80893 6.10414 3.89893 5.99414 3.89893H5.68785C5.57785 3.89893 5.48785 3.80893 5.48785 3.69893C5.48785 3.58893 5.57785 3.49893 5.68785 3.49893ZM6.84414 4.99674C6.95414 4.99674 7.04414 5.08674 7.04414 5.19674C7.04414 5.30674 6.95414 5.39674 6.84414 5.39674H5.03385C4.92385 5.39674 4.83385 5.30674 4.83385 5.19674C4.83385 5.08674 4.92385 4.99674 5.03385 4.99674H6.84414ZM5.93899 6.06194C5.93899 6.17194 5.84899 6.26194 5.73899 6.26194H5.03383C4.92383 6.26194 4.83383 6.17194 4.83383 6.06194C4.83383 5.95194 4.92383 5.86194 5.03383 5.86194H5.73899C5.84899 5.86194 5.93899 5.95194 5.93899 6.06194ZM4.48785 3.49893H4.79414C4.90414 3.49893 4.99414 3.58893 4.99414 3.69893C4.99414 3.80893 4.90414 3.89893 4.79414 3.89893H4.48785C4.37785 3.89893 4.28785 3.80893 4.28785 3.69893C4.28785 3.58893 4.37785 3.49893 4.48785 3.49893ZM4.30585 5.19674C4.30585 5.30674 4.21585 5.39674 4.10585 5.39674H3.30585C3.19585 5.39674 3.10585 5.30674 3.10585 5.19674C3.10585 5.08674 3.19585 4.99674 3.30585 4.99674H4.10585C4.21585 4.99674 4.30585 5.08674 4.30585 5.19674ZM4.30585 6.06194C4.30585 6.17194 4.21585 6.26194 4.10585 6.26194H3.83614C3.72614 6.26194 3.63614 6.17194 3.63614 6.06194C3.63614 5.95194 3.72614 5.86194 3.83614 5.86194H4.10585C4.21585 5.86194 4.30585 5.95194 4.30585 6.06194ZM3.28785 3.49893H3.59414C3.70414 3.49893 3.79414 3.58893 3.79414 3.69893C3.79414 3.80893 3.70414 3.89893 3.59414 3.89893H3.28785C3.17785 3.89893 3.08785 3.80893 3.08785 3.69893C3.08785 3.58893 3.17785 3.49893 3.28785 3.49893ZM3.10585 6.92715C3.10585 6.81715 3.19585 6.72715 3.30585 6.72715H5.18643C5.29643 6.72715 5.38643 6.81715 5.38643 6.92715C5.38643 7.03715 5.29643 7.12715 5.18643 7.12715H3.30585C3.19585 7.12715 3.10585 7.03715 3.10585 6.92715ZM4.10585 7.99235H3.83614C3.72614 7.99235 3.63614 7.90235 3.63614 7.79235C3.63614 7.68235 3.72614 7.59235 3.83614 7.59235H4.10585C4.21585 7.59235 4.30585 7.68235 4.30585 7.79235C4.30585 7.90235 4.21585 7.99235 4.10585 7.99235ZM5.73899 7.99235H5.03383C4.92383 7.99235 4.83383 7.90235 4.83383 7.79235C4.83383 7.68235 4.92383 7.59235 5.03383 7.59235H5.73899C5.84899 7.59235 5.93899 7.68235 5.93899 7.79235C5.93899 7.90235 5.84899 7.99235 5.73899 7.99235ZM8.02814 7.99235H6.73099C6.62099 7.99235 6.53099 7.90235 6.53099 7.79235C6.53099 7.68235 6.62099 7.59235 6.73099 7.59235H8.02812C8.13812 7.59235 8.22812 7.68235 8.22812 7.79235C8.22812 7.90235 8.13814 7.99235 8.02814 7.99235ZM8.02814 7.12715H6.13899C6.02899 7.12715 5.93899 7.03715 5.93899 6.92715C5.93899 6.81715 6.02899 6.72715 6.13899 6.72715H8.02812C8.13812 6.72715 8.22812 6.81715 8.22812 6.92715C8.22812 7.03715 8.13814 7.12715 8.02814 7.12715ZM8.02814 6.26194H6.69156C6.58156 6.26194 6.49156 6.17194 6.49156 6.06194C6.49156 5.95194 6.58156 5.86194 6.69156 5.86194H8.02814C8.13814 5.86194 8.22814 5.95194 8.22814 6.06194C8.22814 6.17194 8.13814 6.26194 8.02814 6.26194ZM10.0002 7.08157C10.078 7.15935 10.078 7.28663 10.0002 7.36442C9.92247 7.44219 9.79519 7.44219 9.7174 7.36442L8.97543 6.62243C8.89766 6.54466 8.89766 6.41738 8.97543 6.33959L9.71742 5.5976C9.79519 5.51983 9.92247 5.51983 10.0003 5.5976C10.078 5.67538 10.078 5.80266 10.0003 5.88045L9.39971 6.48101L10.0002 7.08157ZM11.4433 5.32608L10.7571 7.74511C10.727 7.85093 10.6159 7.91295 10.5101 7.88293C10.4043 7.85291 10.3422 7.74176 10.3723 7.63594L11.0585 5.21691C11.0885 5.11109 11.1996 5.04907 11.3055 5.07909C11.4113 5.10911 11.4733 5.22026 11.4433 5.32608ZM12.8401 6.62243L12.0981 7.36442C12.0203 7.44219 11.8931 7.44219 11.8153 7.36442C11.7375 7.28664 11.7375 7.15936 11.8153 7.08157L12.4158 6.48101L11.8153 5.88045C11.7375 5.80267 11.7375 5.67539 11.8153 5.5976C11.8931 5.51983 12.0203 5.51983 12.0981 5.5976L12.8401 6.33959C12.9179 6.41736 12.9179 6.54464 12.8401 6.62243Z" fill="#006C67"/>
<path id="Vector_2" d="M9.76974 12.1931H6.23437C6.07122 12.1931 5.93774 12.3266 5.93774 12.4897V13.1076H10.0664V12.4897C10.0664 12.3266 9.9329 12.1931 9.76974 12.1931Z" fill="#006C67"/>
<path id="Vector_3" d="M8.02616 10.9487C8.18 10.9378 8.29584 10.8042 8.28491 10.6503C8.27397 10.4965 8.1404 10.3806 7.98656 10.3916C7.83272 10.4025 7.71687 10.5361 7.72781 10.6899C7.73874 10.8438 7.87232 10.9596 8.02616 10.9487Z" fill="#006C67"/>
<path id="Vector_4" d="M2.4314 9.57643L2.43506 10.5762C2.43604 10.8402 2.65282 11.0554 2.91682 11.0544L4.5634 11.0484L4.56509 11.5091C4.56568 11.6722 4.69967 11.8052 4.8628 11.8046L11.1495 11.7816C11.3126 11.781 11.4457 11.6471 11.445 11.4839L11.4434 11.0232L13.0899 11.0171C13.3539 11.0162 13.5691 10.7994 13.5682 10.5354L13.5645 9.53564L2.4314 9.57643ZM8.68972 10.7215C8.68972 10.7808 8.64165 10.8288 8.58239 10.8288C8.57669 10.8288 8.57116 10.8283 8.5657 10.8274C8.55186 10.8768 8.53164 10.9235 8.50602 10.9666C8.50978 10.9695 8.51344 10.9725 8.51688 10.9759C8.5588 11.0179 8.5588 11.0858 8.51688 11.1277L8.45104 11.1936C8.40912 11.2355 8.34117 11.2355 8.29925 11.1936C8.29468 11.189 8.29071 11.1841 8.28712 11.179C8.24671 11.2013 8.20336 11.219 8.15778 11.2313C8.15919 11.2382 8.15992 11.2454 8.15992 11.2527C8.15992 11.312 8.11186 11.3601 8.0526 11.3601H7.95948C7.9002 11.3601 7.85215 11.312 7.85215 11.2527C7.85215 11.2454 7.8529 11.2382 7.85429 11.2313C7.80556 11.2182 7.75936 11.1989 7.7166 11.1743C7.71221 11.1815 7.70703 11.1883 7.70079 11.1946C7.65887 11.2365 7.59092 11.2365 7.549 11.1946L7.48316 11.1287C7.44124 11.0868 7.44124 11.0189 7.48316 10.977C7.48925 10.9709 7.49596 10.9658 7.503 10.9614C7.47839 10.919 7.459 10.8732 7.44568 10.8249C7.43661 10.8274 7.42709 10.8288 7.41722 10.8288C7.35794 10.8288 7.30989 10.7808 7.30989 10.7215V10.6284C7.30989 10.5691 7.35796 10.521 7.41722 10.521C7.42621 10.521 7.4349 10.5223 7.44325 10.5243C7.45578 10.4758 7.47445 10.4298 7.49834 10.3871C7.49013 10.3824 7.48236 10.3767 7.47536 10.3697C7.43344 10.3277 7.43344 10.2598 7.47536 10.2179L7.5412 10.152C7.58312 10.1101 7.65108 10.1101 7.693 10.152C7.69885 10.1579 7.70381 10.1643 7.70804 10.1711C7.75319 10.144 7.80229 10.123 7.85429 10.109C7.85288 10.102 7.85215 10.0949 7.85215 10.0875C7.85215 10.0283 7.90021 9.98021 7.95948 9.98021H8.0526C8.11188 9.98021 8.15992 10.0283 8.15992 10.0875C8.15992 10.0949 8.15917 10.102 8.15778 10.109C8.20669 10.1222 8.25306 10.1415 8.29596 10.1663C8.29928 10.1617 8.3029 10.1572 8.30706 10.153C8.34898 10.1111 8.41693 10.1111 8.45885 10.153L8.52469 10.2189C8.56661 10.2608 8.56661 10.3287 8.52469 10.3707C8.5204 10.375 8.51578 10.3787 8.511 10.3821C8.53583 10.4256 8.5552 10.4725 8.56821 10.5221C8.57287 10.5215 8.57759 10.521 8.5824 10.521C8.64168 10.521 8.68973 10.5691 8.68973 10.6284L8.68972 10.7215Z" fill="#006C67"/>
</g>
</g>
</svg>
